<svg width="32" height="32" viewBox="0 0 32 32" fill="none" xmlns="http://www.w3.org/2000/svg">
<path d="M3.31614 6.17479C3.59839 6.17479 3.88233 6.07966 4.11602 5.88472L7.51014 3.05429C8.04033 2.61216 8.1117 1.82391 7.66958 1.29373C7.22745 0.763538 6.4392 0.6921 5.90902 1.13429L2.51489 3.96485C1.9847 4.40697 1.91333 5.19522 2.35545 5.72541C2.6027 6.02179 2.95808 6.17479 3.31614 6.17479Z" fill="#9D9EA0"/>
<path d="M24.4905 3.0544L27.8846 5.88484C28.1184 6.07978 28.4022 6.1749 28.6845 6.1749C29.0425 6.1749 29.398 6.0219 29.6452 5.72547C30.0873 5.19528 30.0159 4.40703 29.4857 3.9649L26.0916 1.1344C25.5614 0.692279 24.7732 0.763592 24.331 1.29384C23.8889 1.82403 23.9603 2.61222 24.4905 3.0544Z" fill="#9D9EA0"/>
<path d="M26.4298 6.82013C23.9256 4.31606 20.6796 2.824 17.1875 2.54756V1.25C17.1875 0.559625 16.6279 0 15.9375 0C15.2471 0 14.6875 0.559625 14.6875 1.25V2.55831C11.2429 2.86012 8.04444 4.346 5.57025 6.82019C2.78431 9.606 1.25 13.3101 1.25 17.2499C1.25 21.1897 2.78431 24.8938 5.57019 27.6796C5.82856 27.938 6.09494 28.1855 6.36856 28.4221L5.36344 30.1104C5.01031 30.7036 5.20487 31.4708 5.79806 31.8239C5.99856 31.9433 6.21881 32 6.43631 32C6.86244 32 7.27775 31.782 7.51156 31.3892L8.39969 29.8974C10.6709 31.2677 13.2791 31.9998 15.9999 31.9998C18.7099 31.9998 21.3106 31.2761 23.5988 29.8951L24.4883 31.3892C24.7221 31.7819 25.1374 31.9999 25.5636 31.9999C25.781 31.9999 26.0014 31.9432 26.2018 31.8239C26.795 31.4708 26.9896 30.7036 26.6364 30.1104L25.0739 27.4858C24.8935 27.1826 24.5933 26.9698 24.2474 26.8999C23.9017 26.8301 23.5424 26.9095 23.2584 27.1188C21.1445 28.6765 18.6346 29.4998 15.9999 29.4998C9.24531 29.4998 3.75 24.0046 3.75 17.2499C3.75 10.4952 9.24531 5 15.9999 5C22.7546 5 28.2499 10.4952 28.2499 17.2499C28.2499 19.3131 27.7277 21.3524 26.7398 23.1471C26.4069 23.7519 26.6274 24.5121 27.2322 24.8449C27.8369 25.1778 28.5971 24.9574 28.93 24.3526C30.1206 22.1894 30.7499 19.7334 30.7499 17.2499C30.7499 13.3101 29.2156 9.606 26.4298 6.82013Z" fill="#9D9EA0"/>
<path d="M15.9375 8.0625C15.2471 8.0625 14.6875 8.62213 14.6875 9.3125V17.2499C14.6875 17.5815 14.8192 17.8994 15.0536 18.1339L18.5891 21.6694C18.8332 21.9134 19.1531 22.0354 19.473 22.0354C19.7929 22.0354 20.1128 21.9134 20.3569 21.6694C20.8451 21.1813 20.8451 20.3898 20.3569 19.9016L17.1875 16.7322V9.3125C17.1875 8.62213 16.6279 8.0625 15.9375 8.0625Z" fill="#9D9EA0"/>
</svg>
