<svg width="44" height="40" viewBox="0 0 44 40" fill="none" xmlns="http://www.w3.org/2000/svg">
<path d="M5.59797 16.8715C6.52547 16.8715 7.27736 16.1211 7.27736 15.1955C7.27736 14.2699 6.52547 13.5195 5.59797 13.5195C4.67047 13.5195 3.91858 14.2699 3.91858 15.1955C3.91858 16.1211 4.67047 16.8715 5.59797 16.8715Z" fill="#C4C4C4"/>
<path d="M12.2036 16.8715C13.1311 16.8715 13.8829 16.1211 13.8829 15.1955C13.8829 14.2699 13.1311 13.5195 12.2036 13.5195C11.2761 13.5195 10.5242 14.2699 10.5242 15.1955C10.5242 16.1211 11.2761 16.8715 12.2036 16.8715Z" fill="#C4C4C4"/>
<path d="M5.59797 3.35196C6.52547 3.35196 7.27736 2.60159 7.27736 1.67598C7.27736 0.750361 6.52547 0 5.59797 0C4.67047 0 3.91858 0.750361 3.91858 1.67598C3.91858 2.60159 4.67047 3.35196 5.59797 3.35196Z" fill="#C4C4C4"/>
<path d="M12.2036 3.35196C13.1311 3.35196 13.8829 2.60159 13.8829 1.67598C13.8829 0.750361 13.1311 0 12.2036 0C11.2761 0 10.5242 0.750361 10.5242 1.67598C10.5242 2.60159 11.2761 3.35196 12.2036 3.35196Z" fill="#C4C4C4"/>
<path d="M1.9029 13.4076C2.8304 13.4076 3.58229 12.6573 3.58229 11.7316C3.58229 10.806 2.8304 10.0557 1.9029 10.0557C0.975399 10.0557 0.223511 10.806 0.223511 11.7316C0.223511 12.6573 0.975399 13.4076 1.9029 13.4076Z" fill="#C4C4C4"/>
<path d="M1.67939 7.70938C2.60689 7.70938 3.35878 6.95902 3.35878 6.0334C3.35878 5.10778 2.60689 4.35742 1.67939 4.35742C0.751888 4.35742 0 5.10778 0 6.0334C0 6.95902 0.751888 7.70938 1.67939 7.70938Z" fill="#C4C4C4"/>
<path d="M16.0102 13.4076C16.9377 13.4076 17.6896 12.6573 17.6896 11.7316C17.6896 10.806 16.9377 10.0557 16.0102 10.0557C15.0827 10.0557 14.3308 10.806 14.3308 11.7316C14.3308 12.6573 15.0827 13.4076 16.0102 13.4076Z" fill="#C4C4C4"/>
<path d="M15.8983 7.70938C16.8258 7.70938 17.5777 6.95902 17.5777 6.0334C17.5777 5.10778 16.8258 4.35742 15.8983 4.35742C14.9708 4.35742 14.2189 5.10778 14.2189 6.0334C14.2189 6.95902 14.9708 7.70938 15.8983 7.70938Z" fill="#C4C4C4"/>
<path d="M8.84481 13.4079C11.6273 13.4079 13.883 11.1568 13.883 8.37998C13.883 5.60313 11.6273 3.35205 8.84481 3.35205C6.06231 3.35205 3.80664 5.60313 3.80664 8.37998C3.80664 11.1568 6.06231 13.4079 8.84481 13.4079Z" fill="#C4C4C4"/>
<path d="M5.70991 39.9999C6.63741 39.9999 7.3893 39.2495 7.3893 38.3239C7.3893 37.3983 6.63741 36.6479 5.70991 36.6479C4.78241 36.6479 4.03052 37.3983 4.03052 38.3239C4.03052 39.2495 4.78241 39.9999 5.70991 39.9999Z" fill="#C4C4C4"/>
<path d="M12.3155 39.9999C13.243 39.9999 13.9949 39.2495 13.9949 38.3239C13.9949 37.3983 13.243 36.6479 12.3155 36.6479C11.388 36.6479 10.6361 37.3983 10.6361 38.3239C10.6361 39.2495 11.388 39.9999 12.3155 39.9999Z" fill="#C4C4C4"/>
<path d="M5.70991 26.5922C6.63741 26.5922 7.3893 25.8418 7.3893 24.9162C7.3893 23.9906 6.63741 23.2402 5.70991 23.2402C4.78241 23.2402 4.03052 23.9906 4.03052 24.9162C4.03052 25.8418 4.78241 26.5922 5.70991 26.5922Z" fill="#C4C4C4"/>
<path d="M12.3155 26.5922C13.243 26.5922 13.9949 25.8418 13.9949 24.9162C13.9949 23.9906 13.243 23.2402 12.3155 23.2402C11.388 23.2402 10.6361 23.9906 10.6361 24.9162C10.6361 25.8418 11.388 26.5922 12.3155 26.5922Z" fill="#C4C4C4"/>
<path d="M2.01459 36.6479C2.9421 36.6479 3.69398 35.8975 3.69398 34.9719C3.69398 34.0463 2.9421 33.2959 2.01459 33.2959C1.08709 33.2959 0.335205 34.0463 0.335205 34.9719C0.335205 35.8975 1.08709 36.6479 2.01459 36.6479Z" fill="#C4C4C4"/>
<path d="M1.79108 30.9496C2.71858 30.9496 3.47047 30.1993 3.47047 29.2736C3.47047 28.348 2.71858 27.5977 1.79108 27.5977C0.863583 27.5977 0.111694 28.348 0.111694 29.2736C0.111694 30.1993 0.863583 30.9496 1.79108 30.9496Z" fill="#C4C4C4"/>
<path d="M16.1221 36.6479C17.0496 36.6479 17.8015 35.8975 17.8015 34.9719C17.8015 34.0463 17.0496 33.2959 16.1221 33.2959C15.1946 33.2959 14.4427 34.0463 14.4427 34.9719C14.4427 35.8975 15.1946 36.6479 16.1221 36.6479Z" fill="#C4C4C4"/>
<path d="M16.1221 30.9496C17.0496 30.9496 17.8015 30.1993 17.8015 29.2736C17.8015 28.348 17.0496 27.5977 16.1221 27.5977C15.1946 27.5977 14.4427 28.348 14.4427 29.2736C14.4427 30.1993 15.1946 30.9496 16.1221 30.9496Z" fill="#C4C4C4"/>
<path d="M8.95675 36.6482C11.7393 36.6482 13.9949 34.3971 13.9949 31.6202C13.9949 28.8434 11.7393 26.5923 8.95675 26.5923C6.17424 26.5923 3.91858 28.8434 3.91858 31.6202C3.91858 34.3971 6.17424 36.6482 8.95675 36.6482Z" fill="#C4C4C4"/>
<path d="M31.7965 39.9999C32.724 39.9999 33.4758 39.2495 33.4758 38.3239C33.4758 37.3983 32.724 36.6479 31.7965 36.6479C30.869 36.6479 30.1171 37.3983 30.1171 38.3239C30.1171 39.2495 30.869 39.9999 31.7965 39.9999Z" fill="#C4C4C4"/>
<path d="M38.402 39.9999C39.3295 39.9999 40.0814 39.2495 40.0814 38.3239C40.0814 37.3983 39.3295 36.6479 38.402 36.6479C37.4745 36.6479 36.7227 37.3983 36.7227 38.3239C36.7227 39.2495 37.4745 39.9999 38.402 39.9999Z" fill="#C4C4C4"/>
<path d="M31.9084 26.5922C32.8359 26.5922 33.5878 25.8418 33.5878 24.9162C33.5878 23.9906 32.8359 23.2402 31.9084 23.2402C30.9809 23.2402 30.229 23.9906 30.229 24.9162C30.229 25.8418 30.9809 26.5922 31.9084 26.5922Z" fill="#C4C4C4"/>
<path d="M38.402 26.5922C39.3295 26.5922 40.0814 25.8418 40.0814 24.9162C40.0814 23.9906 39.3295 23.2402 38.402 23.2402C37.4745 23.2402 36.7227 23.9906 36.7227 24.9162C36.7227 25.8418 37.4745 26.5922 38.402 26.5922Z" fill="#C4C4C4"/>
<path d="M28.2133 36.6479C29.1408 36.6479 29.8927 35.8975 29.8927 34.9719C29.8927 34.0463 29.1408 33.2959 28.2133 33.2959C27.2858 33.2959 26.5339 34.0463 26.5339 34.9719C26.5339 35.8975 27.2858 36.6479 28.2133 36.6479Z" fill="#C4C4C4"/>
<path d="M27.9898 30.9496C28.9173 30.9496 29.6692 30.1993 29.6692 29.2736C29.6692 28.348 28.9173 27.5977 27.9898 27.5977C27.0623 27.5977 26.3104 28.348 26.3104 29.2736C26.3104 30.1993 27.0623 30.9496 27.9898 30.9496Z" fill="#C4C4C4"/>
<path d="M42.3206 36.6479C43.2481 36.6479 44 35.8975 44 34.9719C44 34.0463 43.2481 33.2959 42.3206 33.2959C41.3931 33.2959 40.6412 34.0463 40.6412 34.9719C40.6412 35.8975 41.3931 36.6479 42.3206 36.6479Z" fill="#C4C4C4"/>
<path d="M42.2087 30.9496C43.1362 30.9496 43.8881 30.1993 43.8881 29.2736C43.8881 28.348 43.1362 27.5977 42.2087 27.5977C41.2812 27.5977 40.5293 28.348 40.5293 29.2736C40.5293 30.1993 41.2812 30.9496 42.2087 30.9496Z" fill="#C4C4C4"/>
<path d="M35.1552 36.6482C37.9377 36.6482 40.1934 34.3971 40.1934 31.6202C40.1934 28.8434 37.9377 26.5923 35.1552 26.5923C32.3727 26.5923 30.1171 28.8434 30.1171 31.6202C30.1171 34.3971 32.3727 36.6482 35.1552 36.6482Z" fill="#C4C4C4"/>
<path d="M31.9084 16.8715C32.8359 16.8715 33.5878 16.1211 33.5878 15.1955C33.5878 14.2699 32.8359 13.5195 31.9084 13.5195C30.9809 13.5195 30.229 14.2699 30.229 15.1955C30.229 16.1211 30.9809 16.8715 31.9084 16.8715Z" fill="#C4C4C4"/>
<path d="M38.514 16.8715C39.4415 16.8715 40.1934 16.1211 40.1934 15.1955C40.1934 14.2699 39.4415 13.5195 38.514 13.5195C37.5865 13.5195 36.8346 14.2699 36.8346 15.1955C36.8346 16.1211 37.5865 16.8715 38.514 16.8715Z" fill="#C4C4C4"/>
<path d="M31.9084 3.35196C32.8359 3.35196 33.5878 2.60159 33.5878 1.67598C33.5878 0.750361 32.8359 0 31.9084 0C30.9809 0 30.229 0.750361 30.229 1.67598C30.229 2.60159 30.9809 3.35196 31.9084 3.35196Z" fill="#C4C4C4"/>
<path d="M38.514 3.35196C39.4415 3.35196 40.1934 2.60159 40.1934 1.67598C40.1934 0.750361 39.4415 0 38.514 0C37.5865 0 36.8346 0.750361 36.8346 1.67598C36.8346 2.60159 37.5865 3.35196 38.514 3.35196Z" fill="#C4C4C4"/>
<path d="M28.2133 13.4076C29.1408 13.4076 29.8927 12.6573 29.8927 11.7316C29.8927 10.806 29.1408 10.0557 28.2133 10.0557C27.2858 10.0557 26.5339 10.806 26.5339 11.7316C26.5339 12.6573 27.2858 13.4076 28.2133 13.4076Z" fill="#C4C4C4"/>
<path d="M27.9898 7.70938C28.9173 7.70938 29.6692 6.95902 29.6692 6.0334C29.6692 5.10778 28.9173 4.35742 27.9898 4.35742C27.0623 4.35742 26.3104 5.10778 26.3104 6.0334C26.3104 6.95902 27.0623 7.70938 27.9898 7.70938Z" fill="#C4C4C4"/>
<path d="M42.3206 13.4076C43.2481 13.4076 44 12.6573 44 11.7316C44 10.806 43.2481 10.0557 42.3206 10.0557C41.3931 10.0557 40.6412 10.806 40.6412 11.7316C40.6412 12.6573 41.3931 13.4076 42.3206 13.4076Z" fill="#C4C4C4"/>
<path d="M42.2087 7.70938C43.1362 7.70938 43.8881 6.95902 43.8881 6.0334C43.8881 5.10778 43.1362 4.35742 42.2087 4.35742C41.2812 4.35742 40.5293 5.10778 40.5293 6.0334C40.5293 6.95902 41.2812 7.70938 42.2087 7.70938Z" fill="#C4C4C4"/>
<path d="M35.1552 13.4079C37.9377 13.4079 40.1934 11.1568 40.1934 8.37998C40.1934 5.60313 37.9377 3.35205 35.1552 3.35205C32.3727 3.35205 30.1171 5.60313 30.1171 8.37998C30.1171 11.1568 32.3727 13.4079 35.1552 13.4079Z" fill="#C4C4C4"/>
</svg>
