<svg width="8" height="8" viewBox="0 0 8 8" fill="none" xmlns="http://www.w3.org/2000/svg">
<path d="M5.50336 3.3955L1.66443 1.82637L1.66443 7.27545e-08C1.8255 0.051447 7.97315 3.98714 8 4.01286C7.91946 4.14148 4.99329 5.94212 4.83221 6.01929C4.56376 6.17363 4.32215 6.32797 4.05369 6.50804C3.73154 6.71383 1.77181 7.97428 1.63758 8L1.63758 6.12219C1.74497 6.12219 1.98658 5.99357 2.12081 5.96785L3.57047 5.40193C3.89262 5.27331 4.21476 5.17042 4.53691 5.0418C4.69799 4.99035 4.85906 4.91318 5.02013 4.86174L5.36913 4.73312C5.50336 4.68167 5.42282 4.75884 5.47651 4.65595C5.36913 4.7074 2.36242 5.22187 1.90604 5.32476C1.55705 5.40193 1.66443 5.37621 1.28859 5.09325C1.10067 4.93891 0.0536911 4.19293 -1.75408e-07 4.01286C0.0805367 3.98714 1.12752 3.13826 1.28859 2.98392C1.71812 2.59807 1.63758 2.67524 2.28188 2.80386C2.57718 2.85531 5.28859 3.3955 5.50336 3.3955Z" fill="#606060"/>
</svg>
