<svg width="8" height="8" viewBox="0 0 8 8" fill="none" xmlns="http://www.w3.org/2000/svg">
<path d="M2.49664 4.6045L6.33557 6.17363L6.33557 8C6.1745 7.94855 0.026846 4.01286 5.2469e-07 3.98714C0.0805374 3.85852 3.00671 2.05788 3.16779 1.98071C3.43624 1.82637 3.67785 1.67203 3.94631 1.49196C4.26846 1.28617 6.22819 0.0257234 6.36242 -1.9528e-08L6.36242 1.87781C6.25503 1.87781 6.01342 2.00643 5.87919 2.03215L4.42953 2.59807C4.10738 2.72669 3.78523 2.82958 3.46309 2.9582C3.30201 3.00965 3.14094 3.08682 2.97987 3.13826L2.63087 3.26688C2.49664 3.31833 2.57718 3.24116 2.52349 3.34405C2.63087 3.2926 5.63758 2.77813 6.09396 2.67524C6.44295 2.59807 6.33557 2.62379 6.71141 2.90675C6.89933 3.06109 7.94631 3.80707 8 3.98714C7.91946 4.01286 6.87248 4.86174 6.71141 5.01608C6.28188 5.40193 6.36242 5.32476 5.71812 5.19614C5.42282 5.14469 2.71141 4.6045 2.49664 4.6045Z" fill="#606060"/>
</svg>
