<svg width="33" height="32" viewBox="0 0 33 32" fill="none" xmlns="http://www.w3.org/2000/svg">
<g clip-path="url(#clip0)">
<path d="M19.4231 19.4868C19.4231 20.1921 18.6721 20.7373 17.9487 20.7373H15.9993L12.2216 25.3623C12.0603 25.5598 11.8154 25.6748 11.5565 25.6748H11.5562C10.9302 25.6748 10.5188 25.0371 10.79 24.4868L12.6387 20.7373H9.5648L8.45027 21.8921C8.35312 21.9927 8.2174 22.0498 8.07542 22.0498H8.01482C7.73062 22.0498 7.5 21.8252 7.5 21.5481V17.3662C7.5 17.0884 7.73187 16.8633 8.01683 16.8645C8.16081 16.865 8.29803 16.9243 8.39518 17.0281L9.52599 18.2373H12.6432L10.792 14.4893C10.5201 13.9387 10.9317 13.3003 11.5582 13.3005C11.8164 13.3008 12.0603 13.415 12.2216 13.6116L16.0199 18.2373H17.9487C18.6721 18.2373 19.4231 18.7812 19.4231 19.4868ZM30.2564 19.5498C30.2564 20.4382 30.9029 21.2109 31.7936 21.3872C32.3911 21.5056 32.8205 22.0178 32.8205 22.6123V25.7998C32.8205 28.5569 30.5201 30.7998 27.6923 30.7998H5.12821C2.30043 30.7998 0 28.5569 0 25.7998V22.6123C0 22.0178 0.429437 21.5056 1.02689 21.3872C1.91757 21.2109 2.5641 20.4382 2.5641 19.5498C2.5641 18.6616 1.91757 17.8889 1.02689 17.7124C0.429437 17.5942 0 17.082 0 16.4875V10.6809C0 9.54907 0.399639 8.4392 1.1253 7.55566C1.85071 6.67211 2.8741 6.04931 4.00691 5.80175L24.0585 1.42114C24.061 1.4204 24.0635 1.41992 24.066 1.41943C26.2928 0.946527 28.577 2.0769 29.4972 4.10717C29.7834 4.73852 29.4904 5.47656 28.8426 5.75561C28.1951 6.03466 27.4382 5.74902 27.1519 5.11767C26.7223 4.16992 25.6558 3.64208 24.6149 3.86157L4.56756 8.24145C4.38477 8.28124 4.21049 8.33911 4.04672 8.41284C4.39553 8.33935 4.75711 8.2998 5.12821 8.2998H27.6923C30.5198 8.2998 32.8205 10.543 32.8205 13.2998V16.4875C32.8205 17.082 32.3911 17.5942 31.7934 17.7124C30.9029 17.8889 30.2564 18.6616 30.2564 19.5498ZM30.2564 13.2998C30.2564 11.9214 29.1061 10.7998 27.6923 10.7998H24.5513C24.5513 11.4902 23.9774 12.0498 23.2692 12.0498C22.5611 12.0498 21.9872 11.4902 21.9872 10.7998H5.12821C3.71444 10.7998 2.5641 11.9214 2.5641 13.2998V15.5969C4.09655 16.3083 5.12821 17.8372 5.12821 19.5498C5.12821 21.2627 4.09655 22.7913 2.5641 23.5029V25.7998C2.5641 27.1785 3.71444 28.2998 5.12821 28.2998H21.9872C21.9872 27.6096 22.5611 27.0498 23.2692 27.0498C23.9774 27.0498 24.5513 27.6096 24.5513 28.2998H27.6923C29.1061 28.2998 30.2564 27.1785 30.2564 25.7998V23.5029C28.724 22.7913 27.6923 21.2627 27.6923 19.5498C27.6923 17.8372 28.724 16.3083 30.2564 15.5969V13.2998ZM23.2692 13.9248C22.5611 13.9248 21.9872 14.4846 21.9872 15.1748C21.9872 15.8652 22.5611 16.4248 23.2692 16.4248C23.9774 16.4248 24.5513 15.8652 24.5513 15.1748C24.5513 14.4846 23.9774 13.9248 23.2692 13.9248ZM23.2692 18.2998C22.5611 18.2998 21.9872 18.8596 21.9872 19.5498C21.9872 20.2402 22.5611 20.7998 23.2692 20.7998C23.9774 20.7998 24.5513 20.2402 24.5513 19.5498C24.5513 18.8596 23.9774 18.2998 23.2692 18.2998ZM23.2692 22.6748C22.5611 22.6748 21.9872 23.2346 21.9872 23.9248C21.9872 24.6152 22.5611 25.1748 23.2692 25.1748C23.9774 25.1748 24.5513 24.6152 24.5513 23.9248C24.5513 23.2346 23.9774 22.6748 23.2692 22.6748Z" fill="#9D9EA0"/>
</g>
<defs>
<clipPath id="clip0">
<rect width="32.8205" height="32" fill="white"/>
</clipPath>
</defs>
</svg>
