<svg width="32" height="32" viewBox="0 0 32 32" fill="none" xmlns="http://www.w3.org/2000/svg">
<g clip-path="url(#clip0)">
<path d="M31.6342 16.9456C31.4668 16.2759 30.7885 15.8689 30.1184 16.0364C29.4487 16.2039 29.0417 16.8826 29.2089 17.5523C29.3606 18.1582 29.4375 18.7698 29.4375 19.3696C29.4375 19.5855 29.4248 19.8047 29.405 20.0156C29.1225 19.8679 28.8068 19.6838 28.4734 19.4566C27.1059 18.5249 26.0056 17.2813 25.1926 15.7542C25.9848 15.2393 26.5637 14.4033 26.7199 13.3992C26.7387 13.2783 26.7524 13.1345 26.7505 12.9517C26.8698 13.0271 26.9736 13.0816 27.0659 13.1238C27.5234 13.3328 28.01 13.438 28.4978 13.438C28.9045 13.438 29.312 13.3648 29.7041 13.2183C30.5651 12.8962 31.2487 12.2578 31.6289 11.4207C32.4126 9.69459 31.6469 7.64845 29.9221 6.85767C31.2067 5.52076 31.1897 3.38624 29.8698 2.06641C28.5337 0.730476 26.3623 0.728278 25.0288 2.06153C25.0134 2.07691 24.9978 2.09327 24.9819 2.11011C24.9641 2.06934 24.9465 2.03126 24.9292 1.99561C24.092 0.291511 22.0263 -0.420647 20.3254 0.408698C19.5966 0.763923 19.0297 1.35206 18.7028 2.08326C17.1657 1.04664 15.04 0.0639718 12.5 0.0639718C11.197 0.0639718 9.8918 0.392341 9.83712 0.406257C9.16793 0.576667 8.76363 1.25684 8.93404 1.92603C8.93648 1.9358 8.94014 1.94483 8.94283 1.9546L8.90816 1.96314C8.93599 2.07423 9.30782 3.48853 10.5044 5.16407C10.4997 5.22974 10.499 5.29639 10.5053 5.36427C10.5561 5.91309 10.3996 7.93385 7.85396 14.823C6.6816 17.9956 5.46968 20.9285 5.05855 21.9119L0.503376 24.8901C0.0314518 25.1987 -0.175335 25.7852 -0.00150726 26.3215C0.902057 29.1116 2.85201 31.0213 5.7939 31.9978C5.92354 32.0408 6.05611 32.0615 6.18746 32.0615C6.60201 32.0615 7.00069 31.8545 7.2358 31.4922L9.53609 27.95C9.97408 28.355 10.2937 28.7754 10.6245 29.2107C11.166 29.9236 11.726 30.6607 12.7302 31.2149C13.7761 31.7925 15.133 32.0613 17 32.0613C17.6904 32.0613 18.25 31.5017 18.25 30.8113C18.25 30.1211 17.6904 29.5613 17 29.5613C14.0305 29.5613 13.4978 28.8601 12.6152 27.6985C12.3198 27.3096 11.988 26.8733 11.5517 26.4253C12.9331 25.8655 14.9909 25.0557 17.1999 24.2705C23.9213 21.8811 26.4077 21.6987 27.2915 21.803C27.3632 21.8113 27.4343 21.812 27.5044 21.8084C28.8755 22.657 29.9448 22.938 30.0383 22.9614L30.0471 22.9268C30.0566 22.9295 30.0656 22.9331 30.0754 22.9356C30.1789 22.9619 30.2824 22.9746 30.3847 22.9746C30.9426 22.9746 31.4511 22.5982 31.5952 22.0327C31.6091 21.9775 31.9375 20.6724 31.9375 19.3696C31.9375 18.5654 31.8354 17.7498 31.6342 16.9456ZM19.0307 7.81251C19.3549 7.77955 20.3276 8.01344 21.4853 8.38038C20.508 9.08472 19.6643 9.60548 19.3469 9.67506C18.8337 9.7544 18.3471 9.40137 18.2627 8.88599C18.2219 8.63721 18.2802 8.38868 18.4267 8.1858C18.5715 7.98512 18.7858 7.85279 19.0307 7.81251ZM22.3857 12.7302C22.4541 12.4121 22.9729 11.5632 23.675 10.5791C24.0446 11.7288 24.2805 12.6943 24.249 13.0191C24.1672 13.5295 23.6855 13.8796 23.1731 13.8001C22.924 13.7612 22.705 13.6282 22.5566 13.4251C22.4091 13.2234 22.3486 12.9768 22.3857 12.7302ZM29.3525 10.387C29.249 10.615 29.063 10.7891 28.8286 10.8767C28.594 10.9644 28.3388 10.9556 28.1093 10.8518C27.8205 10.6997 27.1391 9.96729 26.3767 9.02076C27.5849 8.9773 28.5796 9.01295 28.8833 9.1316C29.3574 9.35084 29.5678 9.91309 29.3525 10.387ZM26.8003 3.82594C27.1591 3.47095 27.7419 3.47413 28.102 3.83424C28.4621 4.19434 28.4655 4.77735 28.1106 5.13624C27.8701 5.34913 26.969 5.71998 25.8437 6.09254C26.216 4.96778 26.5871 4.0669 26.8003 3.82594ZM20.9514 3.18726C21.0319 2.95289 21.1984 2.76417 21.4206 2.65577C21.8855 2.42945 22.4511 2.62623 22.6836 3.09449C22.8105 3.39332 22.8747 4.38184 22.8669 5.58692C21.9038 4.85133 21.1565 4.1919 20.997 3.90797C20.8862 3.68018 20.8701 3.42457 20.9514 3.18726ZM18.7702 5.32594C18.7246 5.33082 18.6818 5.33668 18.6418 5.34303C17.7336 5.48756 16.9372 5.97755 16.3994 6.72266C16.3586 6.77955 16.32 6.83765 16.2829 6.89625C14.7209 6.09766 13.4458 5.00367 12.4848 3.63209C12.2241 3.26002 12.017 2.90821 11.854 2.59669C12.0651 2.57667 12.2844 2.56397 12.5 2.56397C15.3928 2.56397 17.6623 4.28516 18.7702 5.32594ZM5.69381 29.2764C4.32198 28.6431 3.34175 27.7014 2.72506 26.4246L5.863 24.3728L7.6357 26.2859L5.69381 29.2764ZM16.3625 21.9148C13.3781 22.9758 10.6594 24.0828 9.46334 24.5801L7.52608 22.4893C8.0461 21.2354 9.13668 18.5642 10.1958 15.6978C11.7099 11.6011 12.4231 9.10597 12.7507 7.56129C13.5913 8.25074 14.6052 8.90333 15.8254 9.44898C16.1657 11.0545 17.5949 12.1863 19.2019 12.1863C19.3811 12.1863 19.5625 12.1724 19.7446 12.1433C19.8117 12.1326 19.8852 12.1179 19.9665 12.0974C19.9433 12.1878 19.9275 12.2681 19.9162 12.3411C19.7746 13.2495 19.9958 14.1587 20.5388 14.9009C21.0522 15.6028 21.7954 16.0757 22.6438 16.2442C23.2563 17.5596 23.9931 18.6287 24.7612 19.4944C22.6987 19.8489 19.9182 20.6509 16.3625 21.9148Z" fill="#9D9EA0"/>
</g>
<defs>
<clipPath id="clip0">
<rect width="32" height="32" fill="white"/>
</clipPath>
</defs>
</svg>
