<svg width="29" height="24" viewBox="0 0 29 24" fill="none" xmlns="http://www.w3.org/2000/svg">
<g clip-path="url(#clip0)">
<path d="M12.603 19.791H21.735V15.2235H21.738V9.3555H6.7365V19.791H12.603ZM17.169 10.6575H20.4345V13.923H17.169V10.6575ZM17.169 15.2235H20.433V18.4905H17.169V15.2235ZM12.603 10.6575H15.8685V13.923H12.603V10.6575ZM12.603 15.2235H15.8685V18.4905H12.603V15.2235ZM8.034 10.6575H11.304V13.923H8.034V10.6575ZM8.034 15.2235H11.304V18.4905H8.034V15.2235ZM27.8025 0H0.735C0.3315 0 0 0.3285 0 0.738V23.2635C0 23.6715 0.3315 24 0.7455 24H28.539V0.738C28.5375 0.3285 28.2075 0 27.8025 0ZM27.2355 17.9055L27.219 22.6515L1.3005 22.6965V6.6765H27.2355V17.9055ZM27.2355 5.376H1.302V1.299H27.237V5.376H27.2355Z" fill="#BA8B45"/>
</g>
<defs>
<clipPath id="clip0">
<rect width="28.5" height="24" fill="white"/>
</clipPath>
</defs>
</svg>
