<svg width="33" height="32" viewBox="0 0 33 32" fill="none" xmlns="http://www.w3.org/2000/svg">
<g clip-path="url(#clip0)">
<path d="M6.41048 17.3123C7.11836 17.3123 7.69253 17.8718 7.69253 18.5623C7.69253 19.2527 7.11836 19.8123 6.41048 19.8123C6.1766 19.8123 5.36205 19.8123 5.12843 19.8123C4.42029 19.8123 3.84638 19.2527 3.84638 18.5623C3.84638 17.8718 4.42029 17.3123 5.12843 17.3123H6.41048ZM26.4102 17.3123C25.7021 17.3123 25.1282 17.8718 25.1282 18.5623C25.1282 19.2527 25.7021 19.8123 26.4102 19.8123H27.6923C28.4002 19.8123 28.9741 19.2527 28.9741 18.5623C28.9741 17.8718 28.4002 17.3123 27.6923 17.3123C27.4584 17.3123 26.6439 17.3123 26.4102 17.3123ZM30.2561 18.4998V15.7498C30.2561 14.3713 29.106 13.2498 27.6923 13.2498H5.12843C3.71466 13.2498 2.56432 14.3713 2.56432 15.7498V22.8748H8.97458V19.8123C8.97458 18.0891 10.4124 16.6873 12.1795 16.6873H20.5128C22.2801 16.6873 23.7179 18.0891 23.7179 19.8123V22.8748H31.5382C32.2463 22.8748 32.8202 23.4343 32.8202 24.1248V28.562C32.8202 29.2524 32.2463 29.812 31.5382 29.812H26.4102C25.7021 29.812 25.1282 29.2524 25.1282 28.562V25.3745H7.69253V28.562C7.69253 29.2524 7.11836 29.812 6.41048 29.812H1.28227C0.57414 29.812 0.000221787 29.2524 0.000221787 28.562V15.7498C0.000221787 14.2737 0.660028 12.9456 1.7067 12.0295C1.04314 11.6001 0.530821 11.0667 0.161981 10.4202C-0.18232 9.8169 0.0402858 9.05567 0.658776 8.71997C1.27752 8.38428 2.05826 8.60132 2.40257 9.20459C2.60915 9.56641 2.91864 9.85425 3.36285 10.0903L4.94614 6.06177C5.57414 4.46362 6.97238 3.30273 8.68637 2.95654C10.4226 2.60571 13.1941 2.1875 16.5384 2.1875C19.8397 2.1875 22.5015 2.59595 24.1531 2.93872C25.8516 3.29102 27.2398 4.44531 27.8666 6.02612L29.4679 10.0659C29.8948 9.82495 30.2171 9.52686 30.4412 9.16553C30.8075 8.57495 31.5958 8.3855 32.2017 8.74268C32.8075 9.09985 33.0018 9.86841 32.6354 10.4592C32.2523 11.0767 31.7375 11.5964 31.0987 12.0166C32.1539 12.9331 32.8202 14.2666 32.8202 15.7498V18.4998C32.8202 19.1902 32.2463 19.7498 31.5382 19.7498C30.8303 19.7498 30.2561 19.1902 30.2561 18.4998ZM5.84958 10.7498H26.9899L25.475 6.92749C25.1615 6.13696 24.4679 5.55981 23.6195 5.38379C22.0883 5.06616 19.6169 4.6875 16.5384 4.6875C13.4114 4.6875 10.8255 5.07739 9.2067 5.4043C8.35209 5.57715 7.65447 6.15723 7.34047 6.9563L5.84958 10.7498ZM30.2561 27.312V25.3745H27.6923V27.312H30.2561ZM11.5384 22.8748H13.141V21.6873C13.141 20.9968 13.7152 20.4373 14.423 20.4373C15.1312 20.4373 15.7051 20.9968 15.7051 21.6873V22.8748H16.9872V21.6873C16.9872 20.9968 17.5611 20.4373 18.2692 20.4373C18.9773 20.4373 19.5513 20.9968 19.5513 21.6873V22.8748H21.1538V19.8123C21.1538 19.4675 20.8661 19.1873 20.5128 19.1873H12.1795C11.8261 19.1873 11.5384 19.4675 11.5384 19.8123V22.8748ZM2.56432 25.3745V27.312H5.12843V25.3745H2.56432Z" fill="#9D9EA0"/>
</g>
<defs>
<clipPath id="clip0">
<rect width="32.8205" height="32" fill="white"/>
</clipPath>
</defs>
</svg>
