<svg width="39" height="40" viewBox="0 0 39 40" fill="none" xmlns="http://www.w3.org/2000/svg">
<g clip-path="url(#clip0)">
<path d="M39.3429 4.16504H0.342896V11.7138H39.3429V4.16504Z" fill="#C4C4C4"/>
<path d="M8.40004 23.6875H0.342896V27.5053H8.40004V23.6875Z" fill="#C4C4C4"/>
<path d="M12.1715 3.21046C12.8815 3.21046 13.4572 2.62775 13.4572 1.90894C13.4572 1.19013 12.8815 0.607422 12.1715 0.607422C11.4614 0.607422 10.8857 1.19013 10.8857 1.90894C10.8857 2.62775 11.4614 3.21046 12.1715 3.21046Z" fill="#C4C4C4"/>
<path d="M22.2 3.12354C22.9101 3.12354 23.4857 2.54083 23.4857 1.82203C23.4857 1.10322 22.9101 0.520508 22.2 0.520508C21.4899 0.520508 20.9143 1.10322 20.9143 1.82203C20.9143 2.54083 21.4899 3.12354 22.2 3.12354Z" fill="#C4C4C4"/>
<path d="M17.2286 3.21046C17.9387 3.21046 18.5143 2.62775 18.5143 1.90894C18.5143 1.19013 17.9387 0.607422 17.2286 0.607422C16.5185 0.607422 15.9429 1.19013 15.9429 1.90894C15.9429 2.62775 16.5185 3.21046 17.2286 3.21046Z" fill="#C4C4C4"/>
<path d="M1.7143 30.8892C2.42438 30.8892 3.00002 30.3065 3.00002 29.5877C3.00002 28.8688 2.42438 28.2861 1.7143 28.2861C1.00422 28.2861 0.428589 28.8688 0.428589 29.5877C0.428589 30.3065 1.00422 30.8892 1.7143 30.8892Z" fill="#C4C4C4"/>
<path d="M6.77143 30.8892C7.48151 30.8892 8.05715 30.3065 8.05715 29.5877C8.05715 28.8688 7.48151 28.2861 6.77143 28.2861C6.06135 28.2861 5.48572 28.8688 5.48572 29.5877C5.48572 30.3065 6.06135 30.8892 6.77143 30.8892Z" fill="#C4C4C4"/>
<path d="M18.6 23.6875H10.5428V27.5053H18.6V23.6875Z" fill="#C4C4C4"/>
<path d="M11.9143 30.8892C12.6243 30.8892 13.2 30.3065 13.2 29.5877C13.2 28.8688 12.6243 28.2861 11.9143 28.2861C11.2042 28.2861 10.6285 28.8688 10.6285 29.5877C10.6285 30.3065 11.2042 30.8892 11.9143 30.8892Z" fill="#C4C4C4"/>
<path d="M16.9714 30.8892C17.6815 30.8892 18.2571 30.3065 18.2571 29.5877C18.2571 28.8688 17.6815 28.2861 16.9714 28.2861C16.2613 28.2861 15.6857 28.8688 15.6857 29.5877C15.6857 30.3065 16.2613 30.8892 16.9714 30.8892Z" fill="#C4C4C4"/>
<path d="M39.3429 23.6875H31.2858V27.5053H39.3429V23.6875Z" fill="#C4C4C4"/>
<path d="M32.6572 30.8892C33.3673 30.8892 33.9429 30.3065 33.9429 29.5877C33.9429 28.8688 33.3673 28.2861 32.6572 28.2861C31.9471 28.2861 31.3715 28.8688 31.3715 29.5877C31.3715 30.3065 31.9471 30.8892 32.6572 30.8892Z" fill="#C4C4C4"/>
<path d="M37.7143 30.8892C38.4244 30.8892 39 30.3065 39 29.5877C39 28.8688 38.4244 28.2861 37.7143 28.2861C37.0042 28.2861 36.4286 28.8688 36.4286 29.5877C36.4286 30.3065 37.0042 30.8892 37.7143 30.8892Z" fill="#C4C4C4"/>
<path d="M28.8858 23.6875H20.8286V27.5053H28.8858V23.6875Z" fill="#C4C4C4"/>
<path d="M22.2 30.8892C22.9101 30.8892 23.4857 30.3065 23.4857 29.5877C23.4857 28.8688 22.9101 28.2861 22.2 28.2861C21.4899 28.2861 20.9143 28.8688 20.9143 29.5877C20.9143 30.3065 21.4899 30.8892 22.2 30.8892Z" fill="#C4C4C4"/>
<path d="M27.2571 30.8892C27.9672 30.8892 28.5429 30.3065 28.5429 29.5877C28.5429 28.8688 27.9672 28.2861 27.2571 28.2861C26.5471 28.2861 25.9714 28.8688 25.9714 29.5877C25.9714 30.3065 26.5471 30.8892 27.2571 30.8892Z" fill="#C4C4C4"/>
<path d="M8.40004 33.2319H0.342896V37.0497H8.40004V33.2319Z" fill="#C4C4C4"/>
<path d="M1.7143 40.5205C2.42438 40.5205 3.00002 39.9378 3.00002 39.219C3.00002 38.5002 2.42438 37.9175 1.7143 37.9175C1.00422 37.9175 0.428589 38.5002 0.428589 39.219C0.428589 39.9378 1.00422 40.5205 1.7143 40.5205Z" fill="#C4C4C4"/>
<path d="M6.77143 40.5205C7.48151 40.5205 8.05715 39.9378 8.05715 39.219C8.05715 38.5002 7.48151 37.9175 6.77143 37.9175C6.06135 37.9175 5.48572 38.5002 5.48572 39.219C5.48572 39.9378 6.06135 40.5205 6.77143 40.5205Z" fill="#C4C4C4"/>
<path d="M18.6 33.2319H10.5428V37.0497H18.6V33.2319Z" fill="#C4C4C4"/>
<path d="M11.9143 40.5205C12.6243 40.5205 13.2 39.9378 13.2 39.219C13.2 38.5002 12.6243 37.9175 11.9143 37.9175C11.2042 37.9175 10.6285 38.5002 10.6285 39.219C10.6285 39.9378 11.2042 40.5205 11.9143 40.5205Z" fill="#C4C4C4"/>
<path d="M16.9714 40.5205C17.6815 40.5205 18.2571 39.9378 18.2571 39.219C18.2571 38.5002 17.6815 37.9175 16.9714 37.9175C16.2613 37.9175 15.6857 38.5002 15.6857 39.219C15.6857 39.9378 16.2613 40.5205 16.9714 40.5205Z" fill="#C4C4C4"/>
<path d="M39.3429 33.2319H31.2858V37.0497H39.3429V33.2319Z" fill="#C4C4C4"/>
<path d="M32.6572 40.5205C33.3673 40.5205 33.9429 39.9378 33.9429 39.219C33.9429 38.5002 33.3673 37.9175 32.6572 37.9175C31.9471 37.9175 31.3715 38.5002 31.3715 39.219C31.3715 39.9378 31.9471 40.5205 32.6572 40.5205Z" fill="#C4C4C4"/>
<path d="M37.7143 40.5205C38.4244 40.5205 39 39.9378 39 39.219C39 38.5002 38.4244 37.9175 37.7143 37.9175C37.0042 37.9175 36.4286 38.5002 36.4286 39.219C36.4286 39.9378 37.0042 40.5205 37.7143 40.5205Z" fill="#C4C4C4"/>
<path d="M28.8858 33.2319H20.8286V37.0497H28.8858V33.2319Z" fill="#C4C4C4"/>
<path d="M22.2 40.5205C22.9101 40.5205 23.4857 39.9378 23.4857 39.219C23.4857 38.5002 22.9101 37.9175 22.2 37.9175C21.4899 37.9175 20.9143 38.5002 20.9143 39.219C20.9143 39.9378 21.4899 40.5205 22.2 40.5205Z" fill="#C4C4C4"/>
<path d="M27.2571 40.5205C27.9672 40.5205 28.5429 39.9378 28.5429 39.219C28.5429 38.5002 27.9672 37.9175 27.2571 37.9175C26.5471 37.9175 25.9714 38.5002 25.9714 39.219C25.9714 39.9378 26.5471 40.5205 27.2571 40.5205Z" fill="#C4C4C4"/>
<path d="M27.2571 3.12354C27.9672 3.12354 28.5429 2.54083 28.5429 1.82203C28.5429 1.10322 27.9672 0.520508 27.2571 0.520508C26.5471 0.520508 25.9714 1.10322 25.9714 1.82203C25.9714 2.54083 26.5471 3.12354 27.2571 3.12354Z" fill="#C4C4C4"/>
</g>
<defs>
<clipPath id="clip0">
<rect width="39" height="40" fill="white"/>
</clipPath>
</defs>
</svg>
