<svg width="32" height="32" viewBox="0 0 32 32" fill="none" xmlns="http://www.w3.org/2000/svg">
<path d="M6.49243 4.59869L5.8125 4.79303V12.8751H16.4375V4.79303L15.7576 4.59869C12.7271 3.73273 9.52295 3.73273 6.49243 4.59869ZM14.5625 11.0001H7.6875V6.22443C9.94971 5.69098 12.3003 5.69098 14.5625 6.22443V11.0001Z" fill="#9D9EA0"/>
<path d="M11.9954 17.5981L10.2546 16.9019L8.11523 22.25H11.3652L10.2546 25.0269L11.9954 25.7231L14.1348 20.375H10.8848L11.9954 17.5981Z" fill="#9D9EA0"/>
<path d="M31.0625 3.125V0H29.1875V3.125H26.6875V0H24.8125V3.125H23.875V6.625C23.875 8.54248 25.2107 10.1526 27 10.5771V23.5312C27 24.2034 26.4534 24.75 25.7812 24.75C25.1091 24.75 24.5625 24.2034 24.5625 23.5312V16.3438C24.5625 14.6379 23.1746 13.25 21.4688 13.25H21.4062C20.9736 13.25 20.5618 13.3396 20.1875 13.5007V2.8125C20.1875 1.26172 18.9258 0 17.375 0H4.875C3.32422 0 2.0625 1.26172 2.0625 2.8125V30.125H0V32H22.25V30.125H20.1875V16.3438C20.1875 15.6716 20.7341 15.125 21.4062 15.125H21.4688C22.1409 15.125 22.6875 15.6716 22.6875 16.3438V23.5312C22.6875 25.2371 24.0754 26.625 25.7812 26.625C27.4871 26.625 28.875 25.2371 28.875 23.5312V10.5771C30.6643 10.1526 32 8.54248 32 6.625V3.125H31.0625ZM18.3125 30.125H3.9375V2.8125C3.9375 2.29565 4.35815 1.875 4.875 1.875H17.375C17.8918 1.875 18.3125 2.29565 18.3125 2.8125V30.125ZM30.125 6.625C30.125 7.8313 29.1438 8.8125 27.9375 8.8125C26.7312 8.8125 25.75 7.8313 25.75 6.625V5H30.125V6.625Z" fill="#9D9EA0"/>
</svg>
