<svg width="33" height="32" viewBox="0 0 33 32" fill="none" xmlns="http://www.w3.org/2000/svg">
<g clip-path="url(#clip0)">
<path d="M27.7146 24.6875C30.5238 24.6875 32.8143 22.4458 32.8205 19.6875V16.8125C32.8205 16.1221 32.2466 15.5625 31.5385 15.5625H28.3691C24.0024 15.5625 20.4242 12.2073 20.2031 8.00244C23.5199 8.34717 26.9268 10.0344 28.8073 12.3403C29.248 12.8809 30.0543 12.9707 30.6087 12.541C31.1629 12.1113 31.255 11.325 30.8143 10.7847C29.529 9.2085 27.7058 7.86377 25.5416 6.89575C23.8058 6.11938 21.9787 5.64087 20.1923 5.48975V2.5H29.0385C29.7466 2.5 30.3205 1.94043 30.3205 1.25C30.3205 0.55957 29.7466 0 29.0385 0H8.65385C7.94571 0 7.3718 0.55957 7.3718 1.25C7.3718 1.94043 7.94571 2.5 8.65385 2.5H17.6282V5.4375H2.5641V2.9375C2.5641 2.24707 1.99018 1.6875 1.28205 1.6875C0.573918 1.6875 0 2.24707 0 2.9375V6.6875C0 6.69214 0.000751205 6.69653 0.000751205 6.70093C0.0010016 6.73853 0.00250401 6.77612 0.00651038 6.81348C0.00676083 6.81689 0.00751205 6.82031 0.00801282 6.82373C0.0115185 6.8562 0.0167769 6.88867 0.0232872 6.9209C0.0252905 6.93213 0.0275441 6.94312 0.0300481 6.9541C0.0370593 6.98657 0.045573 7.0188 0.0553385 7.05103C0.0585937 7.06152 0.0626001 7.07153 0.0661058 7.08203C0.0741186 7.10571 0.083133 7.12891 0.0926482 7.1521C0.0974058 7.16431 0.102414 7.17627 0.107672 7.18799C0.120443 7.2168 0.134215 7.24536 0.149489 7.27319L0.152494 7.27905C0.153996 7.28149 0.155248 7.28394 0.1565 7.28638L2.39308 11.3982C2.56185 11.7087 2.85707 11.9355 3.20613 12.0232L10.9615 13.969V15.875C10.9615 20.0242 13.918 23.5122 17.8846 24.4431V29.5H15.5311L14.0475 28.0537C13.5469 27.5654 12.7351 27.5654 12.2346 28.0537C11.7338 28.5417 11.7338 29.3333 12.2346 29.8213L14.0936 31.6338C14.3339 31.8684 14.66 32 15 32H29.6154C29.9554 32 30.2815 31.8684 30.5218 31.6338L32.4449 29.7588C32.9457 29.2708 32.9457 28.4792 32.4449 27.9912C31.9444 27.5029 31.1326 27.5029 30.632 27.9912L29.0843 29.5H26.9231V24.6875H27.7146ZM13.5256 15.875V13C13.5256 12.4297 13.1298 11.9316 12.5631 11.7896L4.39328 9.7395L3.41296 7.9375H17.634C17.8228 13.5518 22.5659 18.0625 28.3691 18.0625H30.2564V19.6848C30.2534 21.0649 29.1131 22.1875 27.7146 22.1875H20C16.43 22.1875 13.5256 19.3557 13.5256 15.875ZM24.359 29.5H20.4487V24.6875H24.359V29.5Z" fill="#9D9EA0"/>
</g>
<defs>
<clipPath id="clip0">
<rect width="32.8205" height="32" fill="white"/>
</clipPath>
</defs>
</svg>
