<svg width="24" height="24" viewBox="0 0 24 24" fill="none" xmlns="http://www.w3.org/2000/svg">
<path d="M12.5651 5.64689C11.718 5.36456 10.7299 5.64689 10.0239 6.21156C9.31803 6.77623 8.89453 7.62331 8.89453 8.61156C8.89453 9.03506 9.17687 9.31748 9.60045 9.31748C10.0239 9.31748 10.3064 9.03514 10.3064 8.61156C10.3064 8.18806 10.4475 7.62331 10.871 7.34098C11.2945 7.05864 11.7181 6.91748 12.2828 7.05864C12.9887 7.19981 13.4122 7.76456 13.5534 8.32923C13.6945 9.03514 13.5534 9.59981 12.9887 10.0234C11.8593 10.8705 11.2945 12.1411 11.2945 13.4116C11.2945 13.8351 11.5769 14.1176 12.0004 14.1176C12.4239 14.1176 12.7064 13.8352 12.5651 13.4116C12.5651 12.5646 13.1298 11.7175 13.8357 11.1528C14.8239 10.3057 15.2474 9.17631 14.9651 8.04689C14.6827 6.77631 13.6945 5.92923 12.5651 5.64689Z" fill="#D1D1D1"/>
<path d="M11.4341 17.0829C11.293 17.2241 11.293 17.5064 11.293 17.6476C11.293 17.7887 11.293 17.9299 11.4341 18.0711C11.5753 18.2122 11.8576 18.3534 11.9988 18.3534C12.14 18.3534 12.4223 18.2122 12.4223 18.0711C12.5635 18.0711 12.7046 17.7887 12.7046 17.6476C12.7046 17.3652 12.5635 17.2241 12.4223 17.0829C12.14 16.8005 11.7165 16.8005 11.4341 17.0829Z" fill="#D1D1D1"/>
<path d="M12 0C5.36467 0 0 5.36467 0 12C0 18.6353 5.36467 24 12 24C18.6353 24 24 18.6353 24 12C24 5.36467 18.6353 0 12 0ZM12 22.5882C6.21175 22.5882 1.41175 17.7882 1.41175 12C1.41175 6.21175 6.21175 1.41175 12 1.41175C17.7882 1.41175 22.5882 6.21175 22.5882 12C22.5882 17.7882 17.7882 22.5882 12 22.5882Z" fill="#D1D1D1"/>
</svg>
