<svg width="32" height="32" viewBox="0 0 32 32" fill="none" xmlns="http://www.w3.org/2000/svg">
<path d="M10.5625 17.875C11.2529 17.875 11.8125 18.4346 11.8125 19.125C11.8125 19.8154 11.2529 20.375 10.5625 20.375C9.87207 20.375 9.3125 19.8154 9.3125 19.125C9.3125 18.4346 9.87207 17.875 10.5625 17.875ZM13.6875 19.125C13.6875 19.8154 14.2471 20.375 14.9375 20.375C15.6279 20.375 16.1875 19.8154 16.1875 19.125C16.1875 18.4346 15.6279 17.875 14.9375 17.875C14.2471 17.875 13.6875 18.4346 13.6875 19.125ZM18.0625 19.125C18.0625 19.8154 18.6221 20.375 19.3125 20.375C20.0029 20.375 20.5625 19.8154 20.5625 19.125C20.5625 18.4346 20.0029 17.875 19.3125 17.875C18.6221 17.875 18.0625 18.4346 18.0625 19.125ZM32 24.0625V28.4375C32 29.1279 31.4404 29.6875 30.75 29.6875H1.25C0.55957 29.6875 0 29.1279 0 28.4375C0 27.7644 0.0810547 27.0916 0.240479 26.4375C0.327393 26.0813 0.414062 25.6042 0.514648 25.052C0.884521 23.0168 1.4436 19.9412 3.0542 17.356C4.95801 14.3 7.83984 12.6738 11.625 12.5142V12.375C11.625 10.9944 12.7444 9.875 14.125 9.875H15.9375C17.3181 9.875 18.4375 10.9944 18.4375 12.375V12.5H19.9375C20.6841 12.5 20.9741 12.179 21.1433 11.8992C21.603 11.1394 21.4978 9.8999 21.3301 9.58008C20.4922 7.98022 18.9109 6.75952 16.6304 5.95166C14.3792 5.1543 11.4419 4.75 7.90039 4.75H5.0625C4.37207 4.75 3.8125 4.19043 3.8125 3.5C3.8125 2.80957 4.37207 2.25 5.0625 2.25H7.90039C16.0188 2.25 21.2122 2.40283 24.8665 4.52002C26.8003 5.64038 28.272 7.3147 29.366 9.63867C30.3931 11.8208 31.1538 14.6755 31.7598 18.6228C31.8645 19.3052 31.3965 19.9434 30.7141 20.0481C30.6497 20.0579 30.5857 20.0627 30.5227 20.0627C29.916 20.0627 29.3835 19.6204 29.2888 19.0022C28.1936 11.8689 26.6023 8.41504 23.613 6.68311C22.9507 6.29932 22.2065 5.99146 21.3721 5.74438C22.2871 6.51123 23.0122 7.40332 23.5447 8.41992C24.1306 9.53857 24.197 11.6816 23.2822 13.1934C22.5774 14.3584 21.3896 15 19.9375 15H12.25C9.03174 15 6.71777 16.2031 5.17603 18.678C4.37402 19.9651 3.87573 21.4275 3.52881 22.8125H30.75C31.4404 22.8125 32 23.3721 32 24.0625ZM29.5 25.3125H3.0083C2.99658 25.3755 2.98535 25.4377 2.97412 25.4993C2.8667 26.0906 2.77393 26.6013 2.66943 27.03C2.65649 27.0823 2.64453 27.1348 2.63306 27.1875H29.5V25.3125Z" fill="#9D9EA0"/>
</svg>
