<svg width="14" height="14" viewBox="0 0 14 14" fill="none" xmlns="http://www.w3.org/2000/svg">
<path d="M4.36913 5.94212L11.0872 3.19614L11.0872 -1.2732e-07C10.8054 0.090032 0.0469796 6.97749 -3.06964e-07 7.02251C0.140938 7.24759 5.26174 10.3987 5.54362 10.5338C6.01342 10.8039 6.43624 11.074 6.90604 11.3891C7.4698 11.7492 10.8993 13.955 11.1342 14L11.1342 10.7138C10.9463 10.7138 10.5235 10.4887 10.2886 10.4437L7.75168 9.45338C7.18792 9.2283 6.62416 9.04823 6.0604 8.82315C5.77852 8.73312 5.49664 8.59807 5.21476 8.50804L4.60403 8.28296C4.36913 8.19293 4.51007 8.32797 4.41611 8.14791C4.60403 8.23794 9.86577 9.13826 10.6644 9.31833C11.2752 9.45338 11.0872 9.40836 11.745 8.91318C12.0738 8.64309 13.906 7.33762 14 7.02251C13.8591 6.97749 12.0268 5.49196 11.745 5.22187C10.9933 4.54662 11.1342 4.68167 10.0067 4.90675C9.48993 4.99678 4.74497 5.94212 4.36913 5.94212Z" fill="#DBDBDB"/>
</svg>
