<svg width="243" height="72" viewBox="0 0 243 72" fill="none" xmlns="http://www.w3.org/2000/svg">
<path fill-rule="evenodd" clip-rule="evenodd" d="M0.174402 47.4589C0.348804 47.2849 0.639474 47.3429 0.988278 47.3429H13.6033C18.1378 47.3429 22.6141 47.3429 27.1486 47.3429L54.4715 47.4009L106.153 47.3429L117.954 29.5314C118.186 29.1253 118.477 28.7192 118.71 28.3711L105.339 8.12288H110.803C110.978 8.47099 111.21 8.76108 111.443 9.1672C112.547 10.8497 121.209 24.0197 121.442 24.2518C121.616 24.0778 122.605 22.6273 122.837 22.2792L131.499 9.1672C131.732 8.8191 131.964 8.52901 132.139 8.12288H137.603C134.115 13.3445 130.627 18.7981 127.139 23.9617L124.232 28.3711L136.789 47.4009H243L238.698 48.4452C238.175 48.5612 237.71 48.6193 237.245 48.7353C231.78 50.0117 223.641 50.7079 218.061 50.7079C189.807 50.7079 161.612 50.7079 133.359 50.7079C133.301 50.4758 133.127 50.3018 133.011 50.0697C131.383 47.5169 128.999 43.9778 127.372 41.5411L123.651 35.8554C123.36 35.4492 121.558 32.6064 121.384 32.4903C121.151 32.6644 120.802 33.3606 120.57 33.6507C120.279 34.0568 120.105 34.4049 119.814 34.753C119.058 35.9134 109.466 50.3018 109.35 50.6499H104.932C77.8995 50.6499 50.9254 50.6499 23.8931 50.6499C19.4749 50.6499 15.2892 50.3018 11.3361 49.7216C8.13876 49.3155 5.92967 48.7933 2.9067 48.1551C2.38349 48.0391 2.03469 47.9811 1.56962 47.807C1.39522 47.749 1.16268 47.691 0.87201 47.633C0.639474 47.5749 0.406938 47.5749 0.174402 47.4589ZM79.9923 61.2091C80.1667 61.4412 80.6318 61.5572 80.6318 62.6595C80.6318 63.994 80.7481 70.55 80.5155 71.3042C80.3411 71.7683 80.1086 71.8263 79.9342 72.0004L83.0153 71.9424C82.899 71.8263 82.434 71.5943 82.3758 70.782C82.3177 68.9835 82.2014 63.7619 82.3758 62.3114C82.4921 61.4412 82.8409 61.3832 83.0153 61.2091C82.4921 61.2091 81.9689 61.2091 81.5038 61.2091C80.9225 61.1511 80.5737 61.2091 79.9923 61.2091ZM85.1081 61.2091C85.6895 61.2091 86.0383 61.1511 86.5615 61.1511C87.0266 61.1511 87.5498 61.1511 88.0148 61.1511L84.2361 66.0246C84.4105 66.3147 84.5849 66.5467 84.8175 66.8368C85.5732 67.8231 87.666 70.782 88.5962 71.4202C88.7706 71.5363 88.8868 71.5943 89.0031 71.7103L89.41 72.0004C88.3055 72.0004 86.8522 72.3485 85.922 71.1882L82.6665 66.7788C82.4921 66.5467 82.4921 66.6048 82.434 66.3147L84.8175 63.0657C85.1081 62.6595 85.7476 61.9053 85.2244 61.3832C85.1663 61.3251 85.1663 61.3832 85.1081 61.2671C85.2244 61.2671 85.1663 61.2671 85.1081 61.2091C85.1663 61.2091 85.1663 61.2091 85.1081 61.2091ZM152.776 62.9496C153.067 62.8916 153.067 62.7176 153.648 62.4855C154.404 62.2534 155.392 62.3114 156.206 62.3114C156.206 63.7039 156.322 70.3759 156.09 71.2462C155.915 71.8264 155.683 71.7683 155.508 72.0004H155.567C156.671 72.0004 157.601 71.9424 158.706 71.9424C158.415 71.5363 157.892 71.7103 157.892 69.8537V62.3114C158.531 62.3114 159.636 62.2534 160.217 62.4275C160.624 62.5435 160.624 62.7176 160.915 62.9496C160.915 62.3695 161.264 61.6732 161.322 61.0931C161.031 61.0931 161.031 61.1511 160.682 61.1511H154.171C153.764 61.1511 153.648 61.0931 153.241 61.0931C153.299 61.3251 152.892 62.7756 152.776 62.9496ZM164.984 62.9496C165.333 62.7176 165.507 62.6015 165.914 62.4855C166.554 62.3114 167.484 62.3114 168.182 62.3114C168.356 62.3114 168.414 62.3695 168.414 62.5435C168.414 64.5161 168.53 69.1575 168.356 70.8981C168.298 71.5943 168.007 71.5943 167.717 72.0004H167.775C168.879 72.0004 169.809 71.9424 170.914 71.9424C170.391 71.4782 170.1 71.2462 170.1 70.2599V62.3114C170.972 62.3114 172.774 62.1374 172.949 62.9496C173.181 62.7756 173.123 62.6595 173.239 62.0794C173.355 61.7313 173.414 61.4412 173.472 61.0931C173.181 61.0931 173.181 61.1511 172.832 61.1511H166.321C165.914 61.1511 165.798 61.0931 165.391 61.0931C165.333 61.6732 165.159 62.3114 164.984 62.9496ZM181.552 67.475C181.552 68.3453 181.669 70.782 181.262 71.5363C181.145 71.7103 180.971 71.8263 180.855 72.0004H180.913C182.017 72.0004 182.889 71.9424 183.994 71.9424C183.587 71.3622 183.238 71.4782 183.238 70.2599V67.417C183.238 67.1269 183.529 66.7788 183.645 66.6048C183.82 66.3147 183.994 66.0826 184.168 65.7925L187.25 61.1511C186.203 61.1511 185.331 61.2091 184.401 61.2091C184.575 61.3251 185.157 61.5572 184.866 62.4275L183.82 64.168C183.587 64.5161 182.773 65.6765 182.715 65.9085C182.25 65.6185 180.273 61.7313 179.75 61.3832C179.285 61.0931 178.122 61.2091 177.367 61.2091C177.599 61.5572 178.006 61.4992 178.646 62.6015C178.936 63.1817 181.552 67.0689 181.552 67.475ZM69.5282 67.417C69.5282 68.2292 69.6445 70.666 69.412 71.3042C69.2376 71.8263 69.005 71.7103 68.9469 72.0004H69.005C70.1096 72.0004 70.9816 71.9424 72.0861 71.9424C71.7955 71.4782 71.2722 71.7683 71.2722 69.5637C71.2722 66.7788 70.9816 67.6491 72.2605 65.7925L74.3533 62.7176C74.5278 62.4275 75.2835 61.3832 75.3416 61.1511C74.8766 61.1511 74.4115 61.1511 73.9464 61.1511C73.4232 61.1511 73.1325 61.2091 72.5512 61.2091C73.0163 61.9053 73.6557 61.4992 71.9699 63.994C71.7373 64.3421 70.8653 65.6765 70.6909 65.8505C70.4002 65.2703 70.1096 64.8062 69.7608 64.284C69.412 63.7619 69.1213 63.2397 68.7725 62.7176C67.6679 60.977 68.2493 61.0931 65.3426 61.0931C65.517 61.3251 65.517 61.2091 65.6914 61.3832C66.5053 61.9633 67.9586 64.6321 68.6562 65.6765C68.7725 65.9666 69.5282 67.1269 69.5282 67.417ZM124.523 61.2091C124.697 61.4992 125.162 61.6152 125.162 62.7176C125.162 63.994 125.279 70.55 125.046 71.3042C124.872 71.7683 124.639 71.8263 124.465 72.0004L127.662 71.9424C127.488 71.7103 127.255 71.7103 127.081 71.3042C126.79 70.724 126.848 68.4033 126.848 67.6491C126.848 65.9085 126.848 64.226 126.848 62.4855C128.476 62.0794 130.336 62.5435 130.336 64.226C130.336 64.9803 130.22 65.3864 129.755 65.9085C129.755 65.9085 129.755 65.9085 129.697 65.9666C129.174 66.5467 128.476 66.8948 127.488 66.8948C128.011 67.5911 132.255 67.0689 132.255 64.3421C132.255 63.2397 132.08 62.4855 131.092 61.9053C130.743 61.6732 130.453 61.5572 129.988 61.3832C128.65 60.977 125.976 61.2091 124.523 61.2091ZM39.8799 61.2091C40.0543 61.3832 40.2287 61.4412 40.345 61.6732C40.4031 61.8473 40.5194 62.1954 40.5194 62.3695V70.608C40.5194 71.0141 40.4031 71.4202 40.1706 71.7103C39.9962 71.8844 39.9962 71.8263 39.938 72.0004H39.9962C41.1007 72.0004 41.9727 71.9424 43.0773 71.9424C42.9029 71.7103 42.961 71.8263 42.7866 71.6523C42.6703 71.5363 42.5541 71.4202 42.4959 71.3042C42.3797 71.0721 42.2634 70.724 42.2634 70.3179V62.6015C42.2634 62.3114 42.4959 62.3695 42.7285 62.3695C43.2517 62.3695 43.6005 62.1954 44.5306 62.5435C45.2864 62.8336 45.6352 63.4138 45.6933 64.168C45.8096 65.7345 44.4725 66.8368 42.7866 66.8368C43.0191 67.1269 43.7167 67.1269 44.1237 67.1269C45.7514 67.1269 47.6117 65.9085 47.6117 64.052C47.6117 62.1374 45.8677 61.1511 43.8911 61.1511L39.8799 61.2091ZM196.9 62.6595H197.016C197.074 63.1817 198.469 66.1986 198.469 66.7208H195.33C195.388 66.3727 195.563 66.0826 195.679 65.6765L196.9 62.6595ZM195.505 61.2091C195.737 61.3832 195.911 61.3832 195.911 61.8473C195.911 62.3695 193.237 68.7514 192.83 69.7957C192.656 70.2599 192.482 70.666 192.249 71.0721C191.9 71.6523 191.551 71.7683 191.319 72.0584H191.377C192.423 72.0584 193.237 72.0004 194.284 72.0004L193.935 71.7683C193.702 71.5943 193.761 71.4202 193.761 71.0141C193.761 70.782 194.749 68.1712 194.865 67.9392H198.993C199.109 68.4033 200.039 70.608 200.155 71.1301C200.33 71.7683 199.923 71.6523 199.69 72.0004H199.748C200.911 72.0004 201.783 71.9424 202.946 71.9424C202.829 71.7683 202.597 71.6523 202.423 71.4782C202.306 71.3622 202.074 71.0721 202.016 70.8981C201.783 70.4919 201.609 70.0278 201.434 69.5637L199.167 63.9359C198.934 63.3558 198.121 61.5572 198.062 61.0931C197.132 61.1511 196.377 61.2091 195.505 61.2091ZM142.603 62.6015C142.661 62.8916 142.835 63.2977 143.01 63.5878C143.126 63.9359 143.3 64.226 143.417 64.5741C143.591 65.0383 144.172 66.3147 144.172 66.6628H141.033L142.603 62.6015ZM141.149 61.2091C141.382 61.3832 141.556 61.3832 141.556 61.8473C141.556 62.3114 140.8 63.994 140.626 64.5161C140.277 65.4444 138.301 70.4919 137.952 71.0141C137.429 71.8263 137.254 71.6523 137.08 72.0004H137.138C138.184 72.0004 138.94 71.9424 140.045 71.9424L139.812 71.8264C139.115 71.3042 139.754 70.3179 140.219 69.0415C140.335 68.7514 140.568 68.2292 140.568 67.9392H144.754C144.928 68.6354 145.916 70.782 145.916 71.3622C145.916 71.8263 145.626 71.7683 145.451 72.0584H145.509C146.672 72.0584 147.544 72.0004 148.707 72.0004C148.358 71.5363 148.125 72.0584 147.137 69.6797C146.846 68.9835 143.765 61.5572 143.765 61.2091C143.3 61.2091 142.893 61.2091 142.428 61.2091C141.963 61.1511 141.672 61.2091 141.149 61.2091ZM99.5254 62.6015C99.5254 62.9496 100.921 66.0246 101.037 66.7208H97.8395L99.2347 63.1237C99.351 62.8336 99.2928 62.7176 99.5254 62.6015ZM98.0139 61.2091L98.1301 61.3251C98.1883 61.3832 98.2464 61.3832 98.3046 61.4412C98.5371 61.7313 98.3627 62.1374 98.2464 62.5435C98.072 63.0077 97.8976 63.4718 97.7232 63.9359L94.8746 70.9561C94.7584 71.1882 94.6421 71.3042 94.4677 71.4782C94.2933 71.6523 94.0608 71.8263 93.9445 72.0004L96.8512 71.9424C96.328 71.3042 95.9792 71.8844 96.9093 69.4476C97.0256 69.1575 97.0837 68.9255 97.2 68.6354C97.3744 68.2293 97.3744 67.9392 97.6069 67.9392H101.444C101.734 67.9392 101.734 68.4033 101.967 68.8674L102.781 71.0721C102.955 71.6523 102.49 71.6523 102.258 72.0004H102.316C103.478 72.0004 104.409 71.9424 105.513 71.9424C105.106 71.3622 104.874 71.8264 103.944 69.5637C103.595 68.6354 103.188 67.7071 102.781 66.7208L100.804 61.8473C100.688 61.6152 100.572 61.3251 100.514 61.0931C100.107 61.0931 99.6998 61.0931 99.2347 61.0931C98.8278 61.1511 98.5952 61.2091 98.0139 61.2091ZM110.92 61.2091C110.978 61.2091 110.978 61.2091 110.92 61.2091C110.978 61.2671 111.559 61.4992 111.559 62.7176C111.559 64.052 111.675 70.4919 111.385 71.2462C111.21 71.7683 111.036 71.6523 110.861 71.9424L113.943 71.8844C113.536 71.4202 113.419 71.9424 113.245 70.0278C113.187 69.1575 113.245 63.4718 113.245 62.3114C115.163 61.8473 116.849 62.6595 116.442 64.5161C116.326 65.0963 115.861 65.5024 115.454 65.7345C115.047 65.9666 114.291 66.2566 113.71 66.2566C113.826 66.8368 115.687 69.2736 116.268 69.9698C117.838 71.8844 117.663 71.9424 120.454 72.0004H120.57C120.395 71.7683 118.942 70.9561 117.896 69.6217C117.489 69.0995 117.14 68.6934 116.733 68.1712C116.326 67.7071 115.919 67.1849 115.628 66.7208C115.803 66.6628 115.919 66.6048 116.094 66.5467C119.291 65.2703 118.884 61.1511 114.873 61.1511L110.92 61.2091ZM52.96 61.2091C53.1344 61.4412 53.5995 61.4992 53.5995 62.8916C53.5995 64.11 53.7158 70.4919 53.4833 71.2462C53.4251 71.4202 53.367 71.5363 53.2507 71.6523C53.0763 71.8844 53.0182 71.8263 52.9019 72.0004L55.983 71.9424C55.3435 71.4202 55.2854 70.9561 55.2854 70.0858V62.3695L56.5644 62.2534C57.4945 62.2534 58.5409 62.9496 58.5409 63.8779C58.5409 64.7482 58.4828 65.2123 57.6108 65.7925C57.2038 66.0246 56.39 66.3727 55.7505 66.3727C55.8086 66.6048 56.7388 67.9972 56.9713 68.2873C57.4364 68.9255 59.2385 71.3042 59.8199 71.7103C60.2268 72.0004 60.8081 72.0584 61.4476 72.0584H62.6103H62.6684L61.622 71.2462C61.5057 71.1301 61.3895 71.0721 61.2732 70.9561C59.9361 69.7957 59.4129 68.8094 58.3084 67.533C58.0758 67.243 57.9014 67.0689 57.727 66.7788C58.3084 66.4887 58.7153 66.5467 59.4711 65.7925C61.2151 64.052 60.2849 61.2091 56.9713 61.2091H52.96ZM77.5507 17.4057C77.5507 17.8118 78.3065 17.5218 79.0622 17.6378C81.0388 17.9279 81.0969 19.2043 81.0969 21.0028V37.1317C81.0969 38.7562 81.0388 40.0326 79.7598 40.4968C79.0622 40.7869 78.3065 40.7288 77.5507 40.7288C77.5507 41.251 77.4926 41.4251 77.7833 41.4251H87.9567C88.2474 41.4251 88.1892 41.251 88.1892 40.7288C87.0266 40.7288 86.0964 40.7288 85.2244 40.0326C84.7012 39.6265 84.6431 38.5822 84.6431 37.7119V20.7707C84.6431 20.2486 84.7012 19.6684 84.7593 19.2623C85.2825 16.8255 88.1892 18.1019 88.1892 17.4637V16.9996H77.6088V17.4057H77.5507ZM119.989 11.836L116.442 3.53948H112.315C112.431 3.88759 121.326 17.1736 121.384 17.2317C121.674 17.0576 125.744 10.7337 125.918 10.3856C126.267 9.8054 126.616 9.28324 127.023 8.70306C127.488 8.00685 130.336 3.77155 130.395 3.48146H126.151C126.151 3.71354 125.86 4.23569 125.802 4.52578L124.523 7.65874C124.232 8.35495 124 9.05117 123.709 9.74738C123.593 10.0955 123.418 10.4436 123.302 10.7917L123.011 11.5459C122.895 11.836 123.07 11.662 122.837 11.778C122.953 11.5459 124.116 5.04794 124.349 4.06164C124.523 3.30741 124.465 3.53948 123.825 2.72723C123.477 2.32111 121.791 0.0584183 121.384 -0.0576172C121.326 0.116436 119.407 2.37913 119.058 2.72723C118.186 3.65552 118.361 3.48146 118.651 4.87389C118.768 5.51208 119.989 11.3719 119.989 11.836ZM194.516 21.8731C194.516 23.5556 194.807 24.832 195.911 26.0504C196.202 26.3405 196.377 26.6305 196.725 26.9206C197.19 27.2687 197.597 27.6749 198.121 27.9649C199.865 29.0093 200.795 29.6475 202.771 30.7498C204.05 31.446 205.736 32.3743 206.608 33.4766C208.061 35.2172 207.887 37.5959 206.085 38.9303C203.643 40.7869 199.516 40.0326 197.481 37.944C196.377 36.8417 196.144 35.8554 195.737 34.4629C195.621 34.0568 195.446 33.4186 195.446 32.9545H194.749V41.367C195.795 41.367 195.33 41.309 195.621 40.4968C196.086 39.3944 198.004 40.2647 199.051 40.6128C201.957 41.5991 205.271 41.7151 207.771 40.0326C210.154 38.4081 211.491 35.5073 210.503 32.6064C210.038 31.1559 208.992 29.9375 207.829 29.1253C206.608 28.3131 205.271 27.5008 203.934 26.8046C203.643 26.6305 203.236 26.3985 202.946 26.2244C202.597 26.0504 202.306 25.8763 201.957 25.7023C201.609 25.4702 201.318 25.3541 200.969 25.1221C200.62 24.89 200.33 24.716 199.981 24.4839C199.341 24.0778 198.818 23.6136 198.295 23.0915C195.911 20.7127 198.411 17.1736 201.26 17.1736C202.713 17.1736 203.353 17.2317 204.69 17.8699C205.794 18.45 206.666 19.2043 207.306 20.2486C207.829 21.1189 208.468 23.0334 208.468 24.1358H209.166V15.7812H208.468C208.468 16.4194 208.003 17.1736 207.364 17.1736C206.724 17.1736 205.504 16.5355 204.922 16.3614C202.248 15.4911 199.458 15.4911 197.132 17.1736C195.737 18.16 194.516 20.0745 194.516 21.8731ZM153.416 29.2413C153.416 32.9545 154.695 37.1317 157.543 39.0463C160.508 41.077 165.159 40.0907 167.31 36.8417C168.53 35.0431 169.17 32.3743 169.17 29.4154C169.17 25.2961 168.589 20.3646 165.217 18.16C163.763 17.2317 162.601 17.0576 160.799 17.0576C158.357 17.0576 156.439 18.5081 155.276 20.4226C153.59 23.0915 153.416 25.8763 153.416 29.2413ZM149.23 28.4291C149.23 31.6201 150.102 35.0431 152.195 37.3058C153.59 38.8143 154.229 39.3944 156.148 40.3807C157.252 40.9609 158.589 41.251 159.81 41.367C161.903 41.6571 164.461 41.193 166.321 40.2647C167.833 39.5105 168.705 38.7562 169.867 37.5959C170.739 36.7256 171.786 34.9271 172.309 33.8247C173.588 30.7498 173.646 26.6305 172.367 23.5556C171.902 22.4533 171.495 21.641 170.798 20.7127C170.158 19.8425 169.402 19.0882 168.589 18.392C167.891 17.8699 167.542 17.6378 166.786 17.1736C163.763 15.3751 159.171 15.5492 156.032 17.1156C155.683 17.2897 155.392 17.4637 155.101 17.6378C154.171 18.218 153.357 18.9722 152.602 19.7264C150.393 21.757 149.23 25.2381 149.23 28.4291ZM42.3797 28.8352C44.4144 28.8352 46.1584 28.4871 47.4373 27.6749C48.5419 26.9786 49.7045 25.5282 49.7045 23.7297C49.7045 22.6853 49.7045 21.9891 49.2395 21.0608C48.9488 20.4226 48.7163 20.1326 48.2512 19.6684C47.5536 18.9722 46.2746 18.276 44.8794 18.276C43.1354 18.276 42.2053 18.5661 41.6821 18.5661V28.7772H42.3797V28.8352ZM34.6478 17.4057C34.6478 17.6958 34.9385 17.6378 35.2873 17.6378C36.1012 17.6378 36.8569 17.5798 37.4964 18.16C38.194 18.7981 38.2522 20.0745 38.2522 21.0608V37.3638C38.2522 38.2921 38.1359 39.3944 37.7289 39.9166C36.9732 40.8449 35.8105 40.7869 34.706 40.7869C34.706 41.309 34.6478 41.4831 34.9385 41.4831H45.2864V40.7869C42.961 40.7869 41.7983 40.6128 41.7983 37.7699V29.9375C42.1471 29.9375 42.2053 29.9956 42.4959 29.9956C43.1935 29.9956 43.6586 29.9375 44.3562 29.9375C44.4144 30.2276 45.6352 31.7361 45.8677 32.0842C46.0421 32.3743 46.2165 32.5483 46.3909 32.7804L52.1462 40.7288C52.2624 40.9029 52.495 41.367 52.7856 41.367H59.006C59.2966 41.367 59.2385 41.0189 59.2385 40.6708C58.599 40.6128 57.4945 40.3807 56.9713 40.1487C56.0993 39.8006 55.8086 39.5685 55.2273 39.0463C55.0529 38.8723 54.9947 38.9303 54.8203 38.7562C54.7041 38.5822 54.6459 38.5242 54.5297 38.3501C54.2971 38.118 54.0646 37.886 53.8902 37.5959C53.4833 37.0737 53.0763 36.5516 52.6694 35.9714L51.5067 34.3469C51.0998 33.7667 50.751 33.2446 50.2859 32.6644L48.2512 29.8215C48.1349 29.6475 48.0187 29.5314 47.9605 29.3574C48.6 29.2994 49.7045 28.8352 50.2278 28.6612C55.4598 26.5145 55.4598 18.5661 48.5419 17.1736C47.4955 16.9416 46.2746 16.8836 44.9957 16.8836H34.6478V17.4057ZM0.232536 47.4589H0C0.116268 47.4589 0 47.4589 0.232536 47.4589Z" fill="#BA8A46"/>
</svg>
