<svg width="32" height="32" viewBox="0 0 32 32" fill="none" xmlns="http://www.w3.org/2000/svg">
<g clip-path="url(#clip0)">
<path d="M26.9374 27.0624C26.247 27.0624 25.6874 26.5029 25.6874 25.8124C25.6874 25.122 26.247 24.5625 26.9374 24.5625C27.6279 24.5625 28.1874 25.122 28.1874 25.8124C28.1874 26.5029 27.6279 27.0624 26.9374 27.0624ZM27.9697 19.625H24.0715C24.0686 19.625 24.0659 19.625 24.0629 19.625C22.6567 19.625 21.4299 20.4536 20.9362 21.738C20.8706 21.9089 20.7902 22.124 20.7065 22.375H12.5222C12.1843 22.375 11.8608 22.5117 11.6255 22.7541L9.47825 24.966C9.00511 25.4531 9.00755 26.2287 9.48362 26.7128L11.6711 28.9387C11.906 29.1777 12.2273 29.3124 12.5625 29.3124H16.625C17.3154 29.3124 17.875 28.7529 17.875 28.0624C17.875 27.372 17.3154 26.8124 16.625 26.8124H13.0866L12.1223 25.8315L13.051 24.875H21.644C22.2199 24.875 22.7211 24.4816 22.8581 23.9223C22.9592 23.5095 23.0861 23.1125 23.2697 22.635C23.3908 22.32 23.6945 22.125 24.0659 22.125H24.0683H27.9665C28.32 22.1257 28.6245 22.3156 28.7607 22.6206C29.0961 23.3713 29.497 24.5336 29.4999 25.8073C29.5029 27.0903 29.1027 28.2792 28.7663 29.0507C28.5849 29.4667 28.1247 29.4999 27.9814 29.4999C27.9807 29.4999 27.9799 29.4999 27.9792 29.4999H24.0339C23.6557 29.4992 23.3544 29.3156 23.228 29.0087C23.0817 28.6545 22.955 28.2497 22.8405 27.7714C22.6799 27.1 22.0053 26.686 21.3339 26.8469C20.6626 27.0075 20.2485 27.6821 20.4094 28.3535C20.5544 28.9599 20.7204 29.486 20.9167 29.9621C21.426 31.1967 22.6474 31.9968 24.031 31.9999H27.9763H27.9851C29.3561 31.9999 30.5331 31.2534 31.0578 30.05C31.4899 29.059 32.0041 27.5178 31.9999 25.8015C31.9958 24.0896 31.4772 22.572 31.0429 21.6003C30.508 20.4035 29.3027 19.6281 27.9697 19.625ZM31.9999 10.6897V16.875C31.9999 17.5654 31.4404 18.125 30.7499 18.125C30.0595 18.125 29.4999 17.5654 29.4999 16.875V13.875H22.625V13.8772V17C22.625 17.6904 22.0654 18.25 21.375 18.25C20.6845 18.25 20.125 17.6904 20.125 17V13.8772C20.125 13.8764 20.1252 13.8757 20.1252 13.875H11.875V13.8772V17C11.875 17.6904 11.3154 18.25 10.625 18.25C9.93455 18.25 9.37498 17.6904 9.37498 17V13.8772C9.37498 13.8764 9.37523 13.8757 9.37523 13.875H2.49999V26.9999C2.49999 28.3784 3.62157 29.4999 4.99999 29.4999H8.18748C8.87791 29.4999 9.43748 30.0595 9.43748 30.7499C9.43748 31.4404 8.87791 31.9999 8.18748 31.9999H4.99999C2.24292 31.9999 0 29.757 0 26.9999V10.6897C0 7.93285 2.24292 5.68969 4.99999 5.68969H10.3796V4.99999C10.3796 2.24292 12.6225 0 15.3796 0H16.6203C19.3774 0 21.6203 2.24292 21.6203 4.99999V5.68969H26.9999C29.757 5.68969 31.9999 7.93285 31.9999 10.6897ZM12.8796 5.68969H19.1203V4.99999C19.1203 3.62157 17.999 2.49999 16.6203 2.49999H15.3796C14.0012 2.49999 12.8796 3.62157 12.8796 4.99999V5.68969ZM29.4999 11.375V10.6897C29.4999 9.31126 28.3784 8.18968 26.9999 8.18968H4.99999C3.62157 8.18968 2.49999 9.31126 2.49999 10.6897V11.375H29.4999Z" fill="#9D9EA0"/>
</g>
<defs>
<clipPath id="clip0">
<rect width="32" height="32" fill="white"/>
</clipPath>
</defs>
</svg>
