<svg width="16" height="21" viewBox="0 0 16 21" fill="none" xmlns="http://www.w3.org/2000/svg">
<path d="M7.99996 0C3.58876 0 0 3.4819 0 7.76176C0 10.23 2.13353 13.9073 3.40527 15.8796C4.24201 17.1771 5.14119 18.4121 5.93707 19.3568C7.21456 20.8731 7.67181 21 8.00004 21C8.33318 21 8.76488 20.873 10.0384 19.3559C10.8361 18.4055 11.7357 17.1713 12.5716 15.8806C13.852 13.9035 16 10.2196 16 7.76168C16 3.4819 12.4112 0 7.99996 0ZM11.6918 14.922C10.051 17.506 8.54459 19.2522 7.99243 19.6979C7.43739 19.2659 5.95543 17.5613 4.29167 14.9301C2.37073 11.892 1.26903 9.27922 1.26903 7.76176C1.26895 4.16077 4.28845 1.23117 7.99996 1.23117C11.7115 1.23117 14.731 4.16077 14.731 7.76176C14.7311 9.27052 13.6233 11.8803 11.6918 14.922Z" fill="#35383D"/>
</svg>
