<svg width="33" height="32" viewBox="0 0 33 32" fill="none" xmlns="http://www.w3.org/2000/svg">
<g clip-path="url(#clip0)">
<path d="M31.4125 17.969C30.7058 17.969 30.1329 18.5276 30.1329 19.2165V27.0137C30.1329 28.3896 28.9851 29.5088 27.5738 29.5088H5.05375C3.64274 29.5088 2.49465 28.3896 2.49465 27.0137V26.8889C2.49465 25.5132 3.64274 24.3938 5.05375 24.3938H7.66969C8.37657 24.3938 8.94924 23.8354 8.94924 23.1462V10.7331H11.3235C12.0302 10.7331 12.6031 10.1745 12.6031 9.48555C12.6031 8.79634 12.0302 8.23799 11.3235 8.23799H8.94924V5.11909C8.94924 4.42988 8.37657 3.87153 7.66969 3.87153H5.05375C2.23148 3.87153 -0.0644531 6.11006 -0.0644531 8.86177V27.0137C-0.0644531 29.7654 2.23148 32.0039 5.05375 32.0039H27.5738C30.3961 32.0039 32.692 29.7654 32.692 27.0137V19.2165C32.692 18.5276 32.1194 17.969 31.4125 17.969ZM2.49465 8.86177C2.49465 7.48579 3.64274 6.36665 5.05375 6.36665H6.39014V21.8987H5.05375C4.12225 21.8987 3.24785 22.1428 2.49465 22.5683V8.86177ZM23.8631 12.53C21.7465 12.53 20.0245 10.851 20.0245 8.78731C20.0245 6.72358 21.7465 5.04462 23.8631 5.04462C25.9798 5.04462 27.7018 6.72358 27.7018 8.78731C27.7018 9.47627 27.1291 10.0349 26.4222 10.0349C25.7156 10.0349 25.1427 9.47627 25.1427 8.78731C25.1427 8.09932 24.5688 7.53975 23.8631 7.53975C23.1577 7.53975 22.5836 8.09932 22.5836 8.78731C22.5836 9.4753 23.1577 10.0349 23.8631 10.0349C24.57 10.0349 25.1427 10.5935 25.1427 11.2824C25.1427 11.9714 24.57 12.53 23.8631 12.53ZM22.6009 20.7563C22.8352 21.1181 23.2436 21.3374 23.6823 21.3374H24.1721C24.6108 21.3374 25.0192 21.1179 25.2536 20.7563C26.1263 19.4101 27.2325 18.229 28.3022 17.0869C30.49 14.7507 32.7524 12.3352 32.7561 8.6606C32.7504 3.91962 28.7898 0.062439 23.9272 0.062439C19.0644 0.062439 15.1038 3.91962 15.0983 8.66328C15.1018 12.3352 17.3642 14.7507 19.5522 17.0869C20.6219 18.229 21.728 19.4101 22.6009 20.7563ZM23.9272 2.55756C27.3805 2.55756 30.193 5.29658 30.197 8.66084C30.1943 11.3664 28.4417 13.2378 26.4125 15.4045C25.5751 16.2985 24.7167 17.2151 23.9272 18.2426C23.1377 17.2151 22.2793 16.2985 21.442 15.4045C19.4125 13.2378 17.6602 11.3664 17.6574 8.66353C17.6614 5.29658 20.4739 2.55756 23.9272 2.55756Z" fill="#9D9EA0"/>
</g>
<defs>
<clipPath id="clip0">
<rect width="32.8205" height="32" fill="white"/>
</clipPath>
</defs>
</svg>
