<svg width="10" height="19" xmlns="http://www.w3.org/2000/svg">

 <g>
  <title>background</title>
  <rect fill="none" id="canvas_background" height="21" width="12" y="-1" x="-1"/>
 </g>
 <g>
  <title>Layer 1</title>
  <path id="svg_1" fill="white" d="m1.124328,4.57432c0.12678,0.13137 0.33247,0.13137 0.45924,0l3.32522,-3.76178l3.32556,3.76178c0.12677,0.13137 0.33247,0.13137 0.45925,0c0.12677,-0.13137 0.12677,-0.34444 0,-0.4758l-3.53869,-4.00315c-0.06759,-0.07003 -0.1575,-0.10003 -0.24579,-0.09538c-0.0886,-0.00465 -0.1782,0.02535 -0.24579,0.09538l-3.53901,4.0035c-0.12676,0.13135 -0.12676,0.34408 0.00001,0.47545z"/>
  <path id="svg_2" fill="white" d="m8.562908,14.282403c-0.12678,-0.13137 -0.33247,-0.13137 -0.45924,0l-3.3252,3.76178l-3.32555,-3.76178c-0.12677,-0.13137 -0.33247,-0.13137 -0.45925,0c-0.12677,0.13138 -0.12677,0.34445 0,0.47581l3.53868,4.00315c0.06759,0.07002 0.15749,0.10002 0.24579,0.09537c0.0886,0.00465 0.1782,-0.02535 0.24579,-0.09537l3.53899,-4.00351c0.12676,-0.13134 0.12676,-0.34407 -0.00001,-0.47545z"/>
 </g>
</svg>