<svg width="30" height="28" viewBox="0 0 30 28" fill="none" xmlns="http://www.w3.org/2000/svg">
<path d="M28.7227 14.3105H27.6797C27.627 13.4727 27.4922 12.6465 27.2812 11.8496C27.2871 11.8496 27.293 11.8437 27.2988 11.8437C26.7188 9.64648 25.5469 7.63086 23.8828 6.00781C23.2852 5.42773 22.6406 4.91211 21.9551 4.46094C21.9492 4.46094 21.9375 4.46094 21.9316 4.46094C20.3906 3.45898 18.6445 2.79688 16.8047 2.5332C17.0215 2.19336 17.1445 1.79492 17.1445 1.37305C17.1445 1.13281 17.0391 0.693359 16.3242 0.429687C15.9668 0.300781 15.498 0.224609 15 0.224609C14.502 0.224609 14.0332 0.294922 13.6758 0.429687C12.9609 0.693359 12.8555 1.13281 12.8555 1.37305C12.8555 1.78906 12.9785 2.1875 13.1953 2.52734C10.5469 2.90234 8.08594 4.10352 6.13477 6.00195C3.85547 8.2168 2.51367 11.1523 2.31445 14.3105H1.27734C0.574219 14.3105 0 14.8848 0 15.5938V16.127C0 16.8359 0.574219 17.4102 1.27734 17.4102H6.00586C5.77148 17.5742 5.54297 17.7559 5.33203 17.9551L5.32617 17.9609C5.31445 17.9727 5.30273 17.9844 5.29102 18.002L3.20508 20.5332C2.94141 20.3691 2.63672 20.3047 2.32617 20.3633C2.00977 20.4219 1.73438 20.6035 1.55273 20.873L0.732422 22.0801C0.357422 22.6309 0.503906 23.3867 1.05469 23.7617L6.66211 27.5703C6.86719 27.7109 7.10156 27.7812 7.3418 27.7812C7.41797 27.7812 7.49414 27.7754 7.57031 27.7578C7.88672 27.6992 8.16211 27.5176 8.34375 27.248L9.16406 26.041C9.53906 25.4902 9.39258 24.7344 8.8418 24.3594L8.8125 24.3359C9.20508 23.8906 9.7207 23.5742 10.2891 23.4453C11.4844 23.1699 12.8848 23.3457 13.8398 23.5039C15.0176 23.6973 16.2539 23.6328 17.4141 23.3105L19.0312 22.8652C20.1094 22.5664 21.0996 22.0684 21.9785 21.377C21.9844 21.3711 21.9902 21.3652 21.9961 21.3594L24.7676 18.9043C25.2422 18.541 25.3418 17.9141 25.1777 17.4102H28.7168C29.4199 17.4102 29.9941 16.8359 29.9941 16.1328V15.5996C30 14.8848 29.4258 14.3105 28.7227 14.3105ZM15 1.10937C15.7383 1.10937 16.1836 1.29102 16.2656 1.39648C16.2598 1.8125 16.0488 2.19922 15.709 2.42773C15.6211 2.42187 15.5391 2.42188 15.4512 2.41602C15.4219 2.41602 15.3926 2.41602 15.3633 2.41016C15.2402 2.4043 15.1172 2.4043 15 2.4043C14.918 2.4043 14.8301 2.4043 14.7422 2.41016C14.7012 2.41016 14.6602 2.41016 14.6191 2.41602C14.5664 2.41602 14.5195 2.42187 14.4668 2.42187C14.4082 2.42187 14.3496 2.42773 14.2969 2.42773C13.957 2.19922 13.7461 1.8125 13.7402 1.39648C13.8164 1.29102 14.2617 1.10937 15 1.10937ZM6.75 6.63477C8.7832 4.66016 11.4023 3.49414 14.209 3.3125H14.2148C14.332 3.30664 14.4551 3.30078 14.5664 3.29492C14.5898 3.29492 14.6133 3.29492 14.6367 3.29492C14.6777 3.29492 14.7188 3.29492 14.7598 3.28906C14.8359 3.28906 14.918 3.28906 14.9941 3.28906C15.0996 3.28906 15.2051 3.28906 15.3105 3.29492C15.3398 3.29492 15.375 3.29492 15.4043 3.29492C15.4863 3.29492 15.5625 3.30078 15.6445 3.30664C15.6855 3.30664 15.7324 3.3125 15.7734 3.3125C19.377 3.54687 22.6934 5.42187 24.7559 8.42773C24.7793 8.46289 24.8086 8.49219 24.8438 8.52148C25.166 9.00195 25.4473 9.5 25.6934 10.0156C25.6992 10.0566 25.7109 10.0977 25.7285 10.1387C26.3438 11.457 26.7012 12.8633 26.7949 14.3164H4.64648H4.10156H3.19922C3.39258 11.3984 4.64648 8.68555 6.75 6.63477ZM8.4375 25.5488L7.61719 26.7559C7.56445 26.832 7.48828 26.8789 7.40039 26.8965C7.3125 26.9141 7.22461 26.8965 7.14844 26.8438L1.54102 23.0352C1.38867 22.9297 1.34766 22.7246 1.45312 22.5723L2.27344 21.3652C2.32617 21.2891 2.39648 21.2422 2.48438 21.2246C2.50781 21.2187 2.52539 21.2188 2.54883 21.2188C2.61328 21.2188 2.67773 21.2363 2.73633 21.2773L3.04102 21.4824L8.34375 25.0859C8.50195 25.1855 8.54297 25.3965 8.4375 25.5488ZM24.2285 18.2129C24.2168 18.2187 24.2051 18.2305 24.1992 18.2363L21.4219 20.6973C20.6367 21.3125 19.7578 21.7578 18.7969 22.0215L17.1797 22.4668C16.1367 22.7539 15.0352 22.8125 13.9805 22.6426C12.9551 22.4727 11.4375 22.2852 10.0898 22.5957C9.31055 22.7773 8.60156 23.2227 8.08008 23.8437L3.93164 21.0254L5.94727 18.582C6.70898 17.8613 7.67578 17.4336 8.60156 17.4102H8.61914C8.90625 17.4043 9.21094 17.4922 9.5332 17.5801C9.59766 17.5977 9.66211 17.6152 9.72656 17.6328L12.6328 18.418C12.6973 18.4355 12.7676 18.4355 12.8379 18.4238L16.6465 17.6328C16.8164 17.5977 16.998 17.6328 17.1445 17.7266C17.2383 17.791 17.3086 17.8789 17.3555 17.9785C17.4844 18.2773 17.3613 18.623 17.0742 18.7695L15.7617 19.4551C15.5801 19.5488 15.4922 19.7539 15.5449 19.9531C15.5977 20.1523 15.7734 20.2871 15.9785 20.2812L17.9062 20.2402C17.9473 20.2402 17.9824 20.2344 18.0176 20.2227L20.7305 19.4375C20.7715 19.4258 20.8125 19.4082 20.8535 19.3848L23.5898 17.5742C23.8184 17.4336 24.123 17.3164 24.2871 17.5566C24.4102 17.7383 24.416 18.0723 24.2285 18.2129ZM12.2637 17.4043H13.3887L12.7559 17.5391L12.2637 17.4043ZM18.1465 17.6211C18.1113 17.5449 18.0762 17.4746 18.0293 17.4102H22.2363L20.4141 18.6172L17.8184 19.3672H17.7305C18.2402 18.9453 18.4219 18.2363 18.1465 17.6211ZM29.1211 16.127C29.1211 16.3496 28.9395 16.5312 28.7168 16.5312H1.27734C1.05469 16.5312 0.873047 16.3496 0.873047 16.127V15.5938C0.873047 15.3711 1.05469 15.1895 1.27734 15.1895H4.10156H4.65234H28.7227C28.9453 15.1895 29.127 15.3711 29.127 15.5938V16.127H29.1211Z" fill="#B68133"/>
</svg>
