<svg width="39" height="40" viewBox="0 0 39 40" fill="none" xmlns="http://www.w3.org/2000/svg">
<g clip-path="url(#clip0)">
<path d="M1.45808 26.2068C2.16816 26.2068 2.74379 25.6279 2.74379 24.9137C2.74379 24.1995 2.16816 23.6206 1.45808 23.6206C0.747997 23.6206 0.172363 24.1995 0.172363 24.9137C0.172363 25.6279 0.747997 26.2068 1.45808 26.2068Z" fill="#C4C4C4"/>
<path d="M1.45808 35.6897C2.16816 35.6897 2.74379 35.1108 2.74379 34.3966C2.74379 33.6825 2.16816 33.1035 1.45808 33.1035C0.747997 33.1035 0.172363 33.6825 0.172363 34.3966C0.172363 35.1108 0.747997 35.6897 1.45808 35.6897Z" fill="#C4C4C4"/>
<path d="M1.45808 30.6897C2.16816 30.6897 2.74379 30.1108 2.74379 29.3966C2.74379 28.6825 2.16816 28.1035 1.45808 28.1035C0.747997 28.1035 0.172363 28.6825 0.172363 29.3966C0.172363 30.1108 0.747997 30.6897 1.45808 30.6897Z" fill="#C4C4C4"/>
<path d="M1.45808 21.4656C2.16816 21.4656 2.74379 20.8867 2.74379 20.1725C2.74379 19.4583 2.16816 18.8794 1.45808 18.8794C0.747997 18.8794 0.172363 19.4583 0.172363 20.1725C0.172363 20.8867 0.747997 21.4656 1.45808 21.4656Z" fill="#C4C4C4"/>
<path d="M1.45808 16.4656C2.16816 16.4656 2.74379 15.8867 2.74379 15.1725C2.74379 14.4583 2.16816 13.8794 1.45808 13.8794C0.747997 13.8794 0.172363 14.4583 0.172363 15.1725C0.172363 15.8867 0.747997 16.4656 1.45808 16.4656Z" fill="#C4C4C4"/>
<path d="M35.0572 3.53467H3.94287V11.0347H35.0572V3.53467Z" fill="#C4C4C4"/>
<path d="M3.92322 3.6495L3.92322 40.0288H10.7804L10.7804 3.6495H3.92322Z" fill="#C4C4C4"/>
<path d="M28.2487 3.63192L28.2487 40.0112H35.1058V3.63192H28.2487Z" fill="#C4C4C4"/>
<path d="M11.8286 2.67263C12.5386 2.67263 13.1143 2.09369 13.1143 1.37953C13.1143 0.665368 12.5386 0.0864258 11.8286 0.0864258C11.1185 0.0864258 10.5428 0.665368 10.5428 1.37953C10.5428 2.09369 11.1185 2.67263 11.8286 2.67263Z" fill="#C4C4C4"/>
<path d="M21.8571 2.58621C22.5672 2.58621 23.1428 2.00726 23.1428 1.2931C23.1428 0.578942 22.5672 0 21.8571 0C21.147 0 20.5714 0.578942 20.5714 1.2931C20.5714 2.00726 21.147 2.58621 21.8571 2.58621Z" fill="#C4C4C4"/>
<path d="M16.8857 2.67263C17.5958 2.67263 18.1714 2.09369 18.1714 1.37953C18.1714 0.665368 17.5958 0.0864258 16.8857 0.0864258C16.1756 0.0864258 15.6 0.665368 15.6 1.37953C15.6 2.09369 16.1756 2.67263 16.8857 2.67263Z" fill="#C4C4C4"/>
<path d="M26.9143 2.58621C27.6243 2.58621 28.2 2.00726 28.2 1.2931C28.2 0.578942 27.6243 0 26.9143 0C26.2042 0 25.6285 0.578942 25.6285 1.2931C25.6285 2.00726 26.2042 2.58621 26.9143 2.58621Z" fill="#C4C4C4"/>
<path d="M1.28571 26.2068C1.99579 26.2068 2.57143 25.6279 2.57143 24.9137C2.57143 24.1995 1.99579 23.6206 1.28571 23.6206C0.575634 23.6206 0 24.1995 0 24.9137C0 25.6279 0.575634 26.2068 1.28571 26.2068Z" fill="#C4C4C4"/>
<path d="M1.28571 35.6897C1.99579 35.6897 2.57143 35.1108 2.57143 34.3966C2.57143 33.6825 1.99579 33.1035 1.28571 33.1035C0.575634 33.1035 0 33.6825 0 34.3966C0 35.1108 0.575634 35.6897 1.28571 35.6897Z" fill="#C4C4C4"/>
<path d="M1.28571 30.6897C1.99579 30.6897 2.57143 30.1108 2.57143 29.3966C2.57143 28.6825 1.99579 28.1035 1.28571 28.1035C0.575634 28.1035 0 28.6825 0 29.3966C0 30.1108 0.575634 30.6897 1.28571 30.6897Z" fill="#C4C4C4"/>
<path d="M1.28571 21.4656C1.99579 21.4656 2.57143 20.8867 2.57143 20.1725C2.57143 19.4583 1.99579 18.8794 1.28571 18.8794C0.575634 18.8794 0 19.4583 0 20.1725C0 20.8867 0.575634 21.4656 1.28571 21.4656Z" fill="#C4C4C4"/>
<path d="M1.28571 16.4656C1.99579 16.4656 2.57143 15.8867 2.57143 15.1725C2.57143 14.4583 1.99579 13.8794 1.28571 13.8794C0.575634 13.8794 0 14.4583 0 15.1725C0 15.8867 0.575634 16.4656 1.28571 16.4656Z" fill="#C4C4C4"/>
<path d="M37.7143 26.2068C38.4244 26.2068 39 25.6279 39 24.9137C39 24.1995 38.4244 23.6206 37.7143 23.6206C37.0042 23.6206 36.4286 24.1995 36.4286 24.9137C36.4286 25.6279 37.0042 26.2068 37.7143 26.2068Z" fill="#C4C4C4"/>
<path d="M37.7143 35.6897C38.4244 35.6897 39 35.1108 39 34.3966C39 33.6825 38.4244 33.1035 37.7143 33.1035C37.0042 33.1035 36.4286 33.6825 36.4286 34.3966C36.4286 35.1108 37.0042 35.6897 37.7143 35.6897Z" fill="#C4C4C4"/>
<path d="M37.7143 30.6033C38.4244 30.6033 39 30.0244 39 29.3102C39 28.596 38.4244 28.0171 37.7143 28.0171C37.0042 28.0171 36.4286 28.596 36.4286 29.3102C36.4286 30.0244 37.0042 30.6033 37.7143 30.6033Z" fill="#C4C4C4"/>
<path d="M37.7143 21.4656C38.4244 21.4656 39 20.8867 39 20.1725C39 19.4583 38.4244 18.8794 37.7143 18.8794C37.0042 18.8794 36.4286 19.4583 36.4286 20.1725C36.4286 20.8867 37.0042 21.4656 37.7143 21.4656Z" fill="#C4C4C4"/>
<path d="M37.7143 16.3792C38.4244 16.3792 39 15.8002 39 15.0861C39 14.3719 38.4244 13.793 37.7143 13.793C37.0042 13.793 36.4286 14.3719 36.4286 15.0861C36.4286 15.8002 37.0042 16.3792 37.7143 16.3792Z" fill="#C4C4C4"/>
<path d="M37.6286 26.2068C38.3387 26.2068 38.9143 25.6279 38.9143 24.9137C38.9143 24.1995 38.3387 23.6206 37.6286 23.6206C36.9185 23.6206 36.3429 24.1995 36.3429 24.9137C36.3429 25.6279 36.9185 26.2068 37.6286 26.2068Z" fill="#C4C4C4"/>
<path d="M37.6286 35.6897C38.3387 35.6897 38.9143 35.1108 38.9143 34.3966C38.9143 33.6825 38.3387 33.1035 37.6286 33.1035C36.9185 33.1035 36.3429 33.6825 36.3429 34.3966C36.3429 35.1108 36.9185 35.6897 37.6286 35.6897Z" fill="#C4C4C4"/>
<path d="M37.6286 30.6033C38.3387 30.6033 38.9143 30.0244 38.9143 29.3102C38.9143 28.596 38.3387 28.0171 37.6286 28.0171C36.9185 28.0171 36.3429 28.596 36.3429 29.3102C36.3429 30.0244 36.9185 30.6033 37.6286 30.6033Z" fill="#C4C4C4"/>
<path d="M37.6286 21.4656C38.3387 21.4656 38.9143 20.8867 38.9143 20.1725C38.9143 19.4583 38.3387 18.8794 37.6286 18.8794C36.9185 18.8794 36.3429 19.4583 36.3429 20.1725C36.3429 20.8867 36.9185 21.4656 37.6286 21.4656Z" fill="#C4C4C4"/>
<path d="M37.6286 16.3792C38.3387 16.3792 38.9143 15.8002 38.9143 15.0861C38.9143 14.3719 38.3387 13.793 37.6286 13.793C36.9185 13.793 36.3429 14.3719 36.3429 15.0861C36.3429 15.8002 36.9185 16.3792 37.6286 16.3792Z" fill="#C4C4C4"/>
</g>
<defs>
<clipPath id="clip0">
<rect width="39" height="40" fill="white"/>
</clipPath>
</defs>
</svg>
