<svg width="32" height="32" viewBox="0 0 32 32" fill="none" xmlns="http://www.w3.org/2000/svg">
<g clip-path="url(#clip0)">
<path d="M23.2781 3.75C23.2781 1.68225 21.6379 0 19.6219 0H11.5781C9.56207 0 7.92188 1.68225 7.92188 3.75V14C7.92188 16.0677 9.56207 17.75 11.5781 17.75H19.6219C21.6379 17.75 23.2781 16.0677 23.2781 14V3.75ZM11.5781 2.5H19.6219C20.2939 2.5 20.8406 3.06075 20.8406 3.75V6.73281L17.55 10.125C17.5379 10.1126 17.5256 10.1004 17.513 10.0886L16.4492 9.08562C15.9913 8.62712 15.388 8.375 14.7469 8.375C14.0987 8.375 13.4891 8.63275 13.0294 9.101L10.3594 11.7722V3.75C10.3594 3.06075 10.9061 2.5 11.5781 2.5ZM19.6219 15.25H11.5781C11.248 15.25 10.9486 15.1142 10.729 14.8949L14.7361 10.8859C14.7397 10.8823 14.7433 10.8787 14.7469 10.875C14.7589 10.8874 14.7713 10.8996 14.7839 10.9114L15.8477 11.9144C16.3056 12.3729 16.9089 12.625 17.55 12.625C18.2011 12.625 18.8132 12.3649 19.2758 11.8906L20.8406 10.2774V14C20.8406 14.6892 20.2939 15.25 19.6219 15.25ZM16.3922 5.375C16.3922 4.68463 16.9378 4.125 17.6109 4.125C18.2841 4.125 18.8297 4.68463 18.8297 5.375C18.8297 6.06537 18.2841 6.625 17.6109 6.625C16.9378 6.625 16.3922 6.06537 16.3922 5.375ZM16.7578 24.1875C16.7578 24.8779 16.2122 25.4375 15.5391 25.4375C14.8659 25.4375 14.3203 24.8779 14.3203 24.1875C14.3203 23.4971 14.8659 22.9375 15.5391 22.9375C16.2122 22.9375 16.7578 23.4971 16.7578 24.1875ZM21.3891 23.5625C21.3891 24.2529 20.8434 24.8125 20.1703 24.8125C19.4972 24.8125 18.9516 24.2529 18.9516 23.5625C18.9516 22.8721 19.4972 22.3125 20.1703 22.3125C20.8434 22.3125 21.3891 22.8721 21.3891 23.5625ZM25.6547 22.125C25.6547 22.8154 25.1091 23.375 24.4359 23.375C23.7628 23.375 23.2172 22.8154 23.2172 22.125C23.2172 21.4346 23.7628 20.875 24.4359 20.875C25.1091 20.875 25.6547 21.4346 25.6547 22.125ZM12.1266 23.5625C12.1266 24.2529 11.5809 24.8125 10.9078 24.8125C10.2347 24.8125 9.68906 24.2529 9.68906 23.5625C9.68906 22.8721 10.2347 22.3125 10.9078 22.3125C11.5809 22.3125 12.1266 22.8721 12.1266 23.5625ZM7.86094 22.125C7.86094 22.8154 7.3153 23.375 6.64219 23.375C5.96907 23.375 5.42344 22.8154 5.42344 22.125C5.42344 21.4346 5.96907 20.875 6.64219 20.875C7.3153 20.875 7.86094 21.4346 7.86094 22.125ZM4.875 17.125C4.875 18.0502 4.38464 18.8574 3.65625 19.2897V30.75C3.65625 31.4404 3.11062 32 2.4375 32C1.76438 32 1.21875 31.4404 1.21875 30.75V19.2897C0.490364 18.8574 0 18.0502 0 17.125C0 15.7443 1.09133 14.625 2.4375 14.625C3.78367 14.625 4.875 15.7443 4.875 17.125ZM29.9813 19.2897V30.75C29.9813 31.4404 29.4356 32 28.7625 32C28.0894 32 27.5438 31.4404 27.5438 30.75V19.2897C26.8154 18.8574 26.325 18.0502 26.325 17.125C26.325 15.7443 27.4163 14.625 28.7625 14.625C30.1087 14.625 31.2 15.7443 31.2 17.125C31.2 18.0502 30.7096 18.8574 29.9813 19.2897Z" fill="#9D9EA0"/>
</g>
<defs>
<clipPath id="clip0">
<rect width="31.2" height="32" fill="white"/>
</clipPath>
</defs>
</svg>
