<svg width="32" height="32" viewBox="0 0 32 32" fill="none" xmlns="http://www.w3.org/2000/svg">
<g clip-path="url(#clip0)">
<path d="M30.5 19.75C31.1904 19.75 31.75 19.1904 31.75 18.5V16.125C31.75 9.49121 28.9265 1.25146 28.8064 0.904053C28.6641 0.492432 28.3267 0.202393 27.9319 0.102051C27.78 0.0366211 27.613 0 27.4375 0H5.37501C5.03834 0 4.71559 0.135986 4.48048 0.376953C2.58936 2.31494 1.3047 4.45483 0.436777 7.11182C0.312509 7.49268 0.377939 7.90991 0.613046 8.23389C0.848398 8.55811 1.22462 8.75 1.62501 8.75H3.29542C2.36085 10.9854 1.00001 15.1394 1.00001 20.375V27C1.00001 29.7571 3.24293 32 6.00001 32H25.375C25.6726 32 25.9605 31.8938 26.1865 31.7007L29.9963 28.4485C31.1108 27.4971 31.75 26.1111 31.75 24.6458C31.75 23.9553 31.1904 23.3958 30.5 23.3958C29.8096 23.3958 29.25 23.9553 29.25 24.6458C29.25 25.3784 28.9304 26.0715 28.3731 26.5471L26.75 27.9326V22.25C26.75 17.8738 27.7075 13.8723 28.5108 11.2861C28.5801 11.0627 28.6453 10.8384 28.7066 10.6133C29.0269 12.4526 29.25 14.3655 29.25 16.125V18.5C29.25 19.1904 29.8096 19.75 30.5 19.75ZM12.8313 4.98877C13.5381 3.76709 14.2327 2.91577 14.6008 2.5H16.7C15.3413 4.427 13.575 7.55713 13.1511 11.25H10.6846C11.0488 8.54321 12.0212 6.38916 12.8313 4.98877ZM19.8657 2.5H24.6997C23.9116 3.69165 23.3579 4.94873 22.8005 6.25H17.3433C18.293 4.43115 19.365 3.08472 19.8657 2.5ZM5.91358 2.5H11.4419C10.7915 3.45044 10.0574 4.71069 9.43751 6.25H3.4441C4.07203 4.85522 4.87892 3.63257 5.91358 2.5ZM26.1231 10.5447C25.2686 13.2961 24.25 17.5603 24.25 22.25V29.5H6.00001C4.62159 29.5 3.50001 28.3784 3.50001 27V20.375C3.50001 14.6421 5.31837 10.2588 6.03712 8.75H8.62232C8.33766 9.87769 8.13526 11.1074 8.06422 12.4331C8.04591 12.7756 8.1692 13.1108 8.40528 13.3599C8.64137 13.6089 8.96949 13.75 9.31251 13.75H14.3125C14.9883 13.75 15.5418 13.2129 15.562 12.5376C15.6021 11.2021 15.875 9.92432 16.2695 8.75H23.625C24.1243 8.75 24.5757 8.45288 24.7732 7.99438C24.8491 7.81763 24.9241 7.64282 24.9978 7.46997C25.582 6.104 26.0874 4.92261 26.7988 3.85449C27.0274 6.08472 26.8005 8.36328 26.1231 10.5447Z" fill="#9D9EA0"/>
</g>
<defs>
<clipPath id="clip0">
<rect width="32" height="32" fill="white"/>
</clipPath>
</defs>
</svg>
