<svg width="32" height="32" viewBox="0 0 32 32" fill="none" xmlns="http://www.w3.org/2000/svg">
<g clip-path="url(#clip0)">
<path d="M29.9813 22C30.6544 22 31.2 21.4404 31.2 20.75V5C31.2 2.243 29.0131 0 26.325 0H4.875C2.18693 0 0 2.243 0 5V27C0 29.757 2.18693 32 4.875 32H26.325C29.0131 32 31.2 29.757 31.2 27C31.2 26.3096 30.6544 25.75 29.9813 25.75C29.3081 25.75 28.7625 26.3096 28.7625 27C28.7625 28.3785 27.669 29.5 26.325 29.5H4.875C3.53096 29.5 2.4375 28.3785 2.4375 27V5C2.4375 3.6215 3.53096 2.5 4.875 2.5H26.325C27.669 2.5 28.7625 3.6215 28.7625 5V20.75C28.7625 21.4404 29.3081 22 29.9813 22Z" fill="#9D9EA0"/>
<path d="M17.1234 16.25H15.2344C14.5613 16.25 14.0156 16.8096 14.0156 17.5C14.0156 18.1904 14.5613 18.75 15.2344 18.75H17.1234C20.4835 18.75 23.2172 15.9462 23.2172 12.5C23.2172 9.05375 20.4835 6.25 17.1234 6.25H10.3594C9.68626 6.25 9.14062 6.80963 9.14062 7.5V24.5C9.14062 25.1904 9.68626 25.75 10.3594 25.75C11.0325 25.75 11.5781 25.1904 11.5781 24.5V8.75H17.1234C19.1395 8.75 20.7797 10.4323 20.7797 12.5C20.7797 14.5677 19.1395 16.25 17.1234 16.25Z" fill="#9D9EA0"/>
</g>
<defs>
<clipPath id="clip0">
<rect width="31.2" height="32" fill="white"/>
</clipPath>
</defs>
</svg>
