<svg width="21" height="24" viewBox="0 0 21 24" fill="none" xmlns="http://www.w3.org/2000/svg">
<path d="M3.58489 14.2353C4.09553 16.2466 5.15849 17.7785 5.55449 18.2892V20.1233C5.55449 20.6444 5.27312 21.1133 4.81459 21.3634L0 24H2.61572L5.41902 22.4681C6.28398 21.9991 6.81546 21.0925 6.81546 20.1129V17.8202L6.66956 17.6431C6.65914 17.6222 5.28354 15.9548 4.76248 13.6934L4.69996 13.4433L4.48111 13.3079C4.1789 13.1099 3.99132 12.7764 3.99132 12.4221V10.1711C3.99132 9.87929 4.11637 9.59792 4.34564 9.38949L4.55406 9.20191V5.66913L4.54364 5.58576C4.54364 5.57534 4.35606 4.04342 5.42944 2.81372C6.35693 1.7716 7.93053 1.24012 10.119 1.24012C12.297 1.24012 13.8602 1.7716 14.7877 2.8033C15.861 4.01216 15.6839 5.57534 15.6839 5.58576L15.6735 9.20191L15.8819 9.38949C16.1112 9.59792 16.2362 9.86887 16.2362 10.1711V12.4221C16.2362 12.8702 15.9236 13.287 15.4859 13.4225L15.1733 13.5163L15.069 13.8289C14.6939 14.9961 14.1624 16.0695 13.485 17.0282C13.3183 17.2679 13.1515 17.4763 13.0161 17.6327L12.8597 17.8098V20.1546C12.8597 21.1759 13.4329 22.1033 14.35 22.5619L17.2158 24H20.0399L14.9127 21.4364C14.4333 21.1967 14.1311 20.7069 14.1311 20.1754V18.2996C14.2562 18.1433 14.3917 17.9766 14.5271 17.7786C15.2254 16.799 15.7777 15.7047 16.1841 14.5271C16.9865 14.1416 17.5076 13.3391 17.5076 12.4429V10.1919C17.5076 9.6396 17.3096 9.10812 16.9449 8.69127V5.73165C16.9761 5.39818 17.0908 3.5432 15.7464 2.01129C14.5792 0.677377 12.6826 0 10.119 0C7.55536 0 5.65871 0.677377 4.49153 2.01129C3.1472 3.5432 3.26183 5.4086 3.2931 5.73165V8.69127C2.92835 9.10812 2.73035 9.65002 2.73035 10.1919V12.4429C2.73035 13.1411 3.04299 13.7977 3.58489 14.2353Z" fill="#BA8B45"/>
</svg>
