<svg width="26" height="27" viewBox="0 0 26 27" fill="none" xmlns="http://www.w3.org/2000/svg">
<g clip-path="url(#clip0)">
<path d="M25.9128 0.570068H0V26.0812H25.9128V0.570068ZM24.7402 24.9268H1.17252V1.72442H24.7402V24.9268Z" fill="#606060"/>
<path d="M9.24224 20.0306C9.83968 19.7132 10.2068 19.0995 10.2068 18.4364V16.8845L10.106 16.7646C10.0988 16.7505 9.14867 15.6218 8.78877 14.0911L8.74558 13.9218L8.59442 13.8301C8.38568 13.6961 8.25612 13.4703 8.25612 13.2305V11.7068C8.25612 11.5093 8.3425 11.3188 8.50085 11.1778L8.64481 11.0508V8.65945L8.63761 8.60301C8.63761 8.59596 8.50805 7.55901 9.24944 6.72662C9.88286 6.02122 10.9698 5.66146 12.4813 5.66146C13.9857 5.66146 15.0654 6.02122 15.706 6.71957C16.4474 7.53785 16.3251 8.59596 16.3251 8.60301L16.3179 11.0508L16.4618 11.1778C16.6202 11.3188 16.7066 11.5022 16.7066 11.7068V13.2305C16.7066 13.5338 16.4906 13.816 16.1883 13.9077L15.9724 13.9712L15.9004 14.1828C15.6413 14.9729 15.2742 15.6994 14.8063 16.3484C14.6911 16.5106 14.576 16.6517 14.4824 16.7575L14.3744 16.8775V18.4646C14.3744 19.1559 14.7703 19.7837 15.4037 20.0941L18.9379 21.8294L19.8305 21.3074C19.8305 21.3074 19.5426 21.1663 19.5066 21.1522L15.7924 19.3323C15.4613 19.17 15.2526 18.8385 15.2526 18.4787V17.209C15.3389 17.1032 15.4325 16.9903 15.5261 16.8563C16.0084 16.1932 16.3898 15.4525 16.6706 14.6554C17.2248 14.3944 17.5847 13.8513 17.5847 13.2446V11.7209C17.5847 11.3471 17.448 10.9873 17.196 10.7051V8.70177C17.2176 8.47604 17.2968 7.22041 16.3683 6.18346C15.5621 5.28054 14.252 4.82202 12.4813 4.82202C10.7106 4.82202 9.4006 5.28054 8.59442 6.18346C7.66588 7.22041 7.74506 8.48309 7.76666 8.70177V10.7051C7.51473 10.9873 7.37796 11.3541 7.37796 11.7209V13.2446C7.37796 13.7172 7.5939 14.1616 7.9682 14.4579C8.3209 15.8193 9.0551 16.8563 9.32862 17.2019V18.4435C9.32862 18.7962 9.13427 19.1136 8.81756 19.2829L5.21857 21.2157L5.95996 21.7871L9.24224 20.0306Z" fill="#606060"/>
</g>
<defs>
<clipPath id="clip0">
<rect width="25.9128" height="25.5111" fill="white" transform="translate(0 0.570068)"/>
</clipPath>
</defs>
</svg>
