<svg width="21" height="21" viewBox="0 0 21 21" fill="none" xmlns="http://www.w3.org/2000/svg">
<path d="M3.58489 12.1305C4.09553 14.1418 5.15849 14.7254 5.55449 15.236V17.1223C5.55449 17.6433 5.27312 18.1123 4.81459 18.3624L0 20.999H2.61572L5.41902 19.467C6.28398 18.9981 6.81546 18.0915 6.81546 17.1119V14.7671L6.66956 14.5899C6.65914 14.5691 5.28354 13.85 4.76248 11.5886L4.69996 11.3385L4.48111 11.203C4.1789 11.005 3.99132 10.6716 3.99132 10.3172V9.17091C3.99132 8.87912 4.11637 8.59775 4.34564 8.38932L4.55406 8.20174V6.66983L4.54364 6.58646C4.54364 6.57604 4.35606 4.17916 5.42944 2.94946C6.3465 1.90734 7.9201 1.37586 10.1086 1.37586C12.2866 1.37586 13.8498 1.90734 14.7772 2.93904C15.8506 4.1479 15.6735 6.57604 15.6735 6.58646L15.663 8.20174L15.8715 8.38932C16.1007 8.59775 16.2258 8.8687 16.2258 9.17091V10.3172C16.2258 10.7654 15.9132 11.1822 15.4755 11.3177L15.1628 11.4115L15.0586 11.7241C14.6835 12.8913 14.0999 13.0684 13.4225 14.0272C13.2558 14.2669 13.089 14.4753 12.9535 14.6316L12.7972 14.8088L12.8493 17.1535C12.8493 18.1748 13.4225 19.1023 14.3396 19.5608L17.2054 20.999H20.0295L14.9023 18.4354C14.4229 18.1957 14.1207 17.7059 14.1207 17.1744L14.0686 15.2986C14.1937 15.1423 14.3291 14.9755 14.4646 14.7775C15.1628 13.7979 15.7673 13.5999 16.1737 12.4223C16.9761 12.0367 17.4972 11.2343 17.4972 10.3381V9.19176C17.4972 8.63943 17.2992 7.42015 16.9344 7.00331V6.73235C16.9657 6.39888 17.0803 3.67895 15.736 2.14703C14.5688 0.81312 12.6722 0.135742 10.1086 0.135742C7.54494 0.135742 5.64828 0.81312 4.48111 2.14703C3.13678 3.67895 3.25141 6.4093 3.28267 6.73235V7.6911C2.91793 8.10795 2.71993 8.64985 2.71993 9.19176V10.3381C2.73035 11.0363 3.04299 11.6928 3.58489 12.1305Z" fill="#BA8B45"/>
</svg>
