<svg width="22" height="22" viewBox="0 0 22 22" fill="none" xmlns="http://www.w3.org/2000/svg">
<path d="M5.05291 14.3451C7.03304 16.712 9.41667 18.5757 12.1373 19.8944C13.1731 20.3853 14.5583 20.9677 16.1017 21.0675C16.1974 21.0717 16.2889 21.0758 16.3846 21.0758C17.4204 21.0758 18.2524 20.7181 18.9304 19.9818C18.9346 19.9776 18.9429 19.9693 18.9471 19.961C19.1883 19.6698 19.4629 19.4077 19.7499 19.129C19.9455 18.9418 20.1451 18.7463 20.3365 18.5466C21.2226 17.6231 21.2226 16.45 20.3282 15.5556L17.828 13.0555C17.4037 12.6145 16.8962 12.3816 16.3638 12.3816C15.8313 12.3816 15.3196 12.6145 14.8828 13.0513L13.3936 14.5406C13.2563 14.4615 13.1149 14.3908 12.9817 14.3243C12.8153 14.2411 12.6614 14.162 12.5241 14.0747C11.168 13.2135 9.93667 12.0904 8.75941 10.6469C8.16454 9.89393 7.76518 9.26162 7.48647 8.61683C7.8775 8.26324 8.24358 7.893 8.59717 7.53109C8.72197 7.40213 8.85092 7.27317 8.97988 7.14421C9.42915 6.69494 9.67043 6.17495 9.67043 5.64664C9.67043 5.11833 9.43331 4.59834 8.97988 4.14907L7.74022 2.90941C7.59463 2.76381 7.45735 2.62237 7.31591 2.47677C7.04136 2.1939 6.75432 1.9027 6.47145 1.64063C6.04297 1.22048 5.53962 1 5.00715 1C4.47884 1 3.97133 1.22048 3.52622 1.64479L1.9704 3.2006C1.40465 3.76635 1.08434 4.45274 1.01778 5.24729C0.938741 6.24151 1.12178 7.29813 1.59601 8.57523C2.324 10.5512 3.42222 12.3857 5.05291 14.3451ZM2.0328 5.33465C2.08272 4.78137 2.29488 4.31962 2.69423 3.92027L4.24172 2.37278C4.483 2.13982 4.74924 2.01918 5.00715 2.01918C5.26091 2.01918 5.51882 2.13982 5.75594 2.3811C6.03465 2.63901 6.29673 2.90941 6.5796 3.19644C6.72104 3.34204 6.86664 3.48764 7.01224 3.63739L8.25189 4.87705C8.50981 5.13497 8.64293 5.39704 8.64293 5.65496C8.64293 5.91288 8.50981 6.17495 8.25189 6.43287C8.12294 6.56182 7.99398 6.69494 7.86502 6.8239C7.47815 7.21493 7.11623 7.58517 6.71688 7.93876C6.70856 7.94708 6.7044 7.95124 6.69608 7.95956C6.35081 8.30483 6.40489 8.63347 6.48809 8.88306C6.49225 8.89554 6.49641 8.90386 6.50057 8.91634C6.82088 9.68593 7.26599 10.4181 7.9607 11.2917C9.20868 12.8308 10.5232 14.0247 11.9709 14.9441C12.1497 15.0606 12.3411 15.1521 12.52 15.2436C12.6864 15.3268 12.8403 15.4058 12.9776 15.4932C12.9942 15.5015 13.0067 15.5098 13.0233 15.5182C13.1606 15.5889 13.2937 15.6221 13.4268 15.6221C13.7596 15.6221 13.976 15.41 14.0467 15.3393L15.6025 13.7835C15.8438 13.5422 16.1058 13.4132 16.3638 13.4132C16.6799 13.4132 16.9378 13.6087 17.1001 13.7835L19.6085 16.2877C20.1077 16.7869 20.1035 17.3277 19.596 17.856C19.4213 18.0432 19.2383 18.2221 19.0427 18.4093C18.7516 18.6922 18.4479 18.9834 18.1733 19.312C17.6949 19.8278 17.125 20.0691 16.3887 20.0691C16.318 20.0691 16.2431 20.065 16.1724 20.0608C14.8079 19.9734 13.5392 19.441 12.5865 18.9875C9.99906 17.7354 7.72774 15.9591 5.8433 13.7044C4.29164 11.8366 3.2475 10.0978 2.55695 8.23412C2.12848 7.09014 1.96624 6.17079 2.0328 5.33465Z" fill="#3B3B3B" stroke="#3B3B3B" stroke-width="0.25"/>
</svg>
