<svg width="26" height="27" viewBox="0 0 26 27" fill="none" xmlns="http://www.w3.org/2000/svg">
<g clip-path="url(#clip0)">
<path d="M25.049 0.570068H0V26.0812H25.049V0.570068ZM23.9156 24.9268H1.13344V1.72442H23.9156V24.9268Z" fill="#606060"/>
<path d="M6.80628 23.0452H3.0376V19.2128H3.73466V21.8447L8.08707 17.4062L8.58012 17.9084L4.22204 22.3411H6.80628V23.0452Z" fill="#606060"/>
<path d="M18.3051 3.63501H22.0681V7.46745H21.3767V4.83553L17.0186 9.274L16.5312 8.77186L20.8837 4.33916H18.3051V3.63501Z" fill="#606060"/>
<path d="M22.0113 19.1955V23.0279H18.2427V22.3238H20.8269L16.4745 17.8853L16.9619 17.3889L21.3199 21.8274V19.1955H22.0113Z" fill="#606060"/>
<path d="M2.94696 7.48454V3.6521H6.71565V4.35625H4.1314L8.48381 8.78896L7.99643 9.2911L3.63836 4.85262V7.48454H2.94696Z" fill="#606060"/>
</g>
<defs>
<clipPath id="clip0">
<rect width="25.049" height="25.5111" fill="white" transform="translate(0 0.570068)"/>
</clipPath>
</defs>
</svg>
