<svg width="32" height="32" viewBox="0 0 32 32" fill="none" xmlns="http://www.w3.org/2000/svg">
<g clip-path="url(#clip0)">
<path d="M25.6873 25.3125C26.376 25.3125 26.9348 24.7551 26.937 24.0664C26.9373 24.0383 26.9373 24.0217 26.9373 24.0195C26.9802 21.283 26.7444 18.8149 26.2166 16.4749C26.0647 15.8015 25.3958 15.3789 24.7222 15.5308C24.0486 15.6826 23.626 16.3518 23.7778 17.0251C23.804 17.1411 23.8291 17.2576 23.8535 17.3743C22.052 16.3125 19.3784 15.8125 15.575 15.8125C11.925 15.8125 9.08642 16.5366 7.13769 17.9646C7.11645 17.9802 7.09595 17.9963 7.07495 18.012C7.53638 15.3618 8.39184 13.3323 9.60058 12.0969C10.4751 11.2031 11.5137 10.75 12.6877 10.75H15.0312C15.0645 10.75 15.0979 10.7488 15.1311 10.7461C18.4297 10.4675 20.0867 7.3208 20.5156 6.36353C20.5195 6.35498 20.5232 6.34644 20.5269 6.33765C21.6228 3.73779 22.5183 2.90308 24.2122 2.90308C24.353 2.90308 24.4927 2.87939 24.6255 2.83276C24.74 2.79248 24.8528 2.75708 24.9656 2.72559C24.9463 2.8689 24.9385 3.0166 24.9448 3.16797C24.9675 4.26978 26.0171 5.20654 28.3191 6.73706C27.74 6.69702 27.2192 6.77954 26.7803 6.84937C26.0847 6.95947 25.8831 6.96655 25.6821 6.81152C25.136 6.3894 24.3508 6.48999 23.9287 7.03638C23.8816 7.09741 23.842 7.16162 23.8079 7.22778C22.7893 8.5791 22.3489 9.79834 22.3843 11.1575C22.4021 11.8367 22.958 12.375 23.6333 12.375C23.6443 12.375 23.6553 12.3748 23.6665 12.3745C24.3564 12.3564 24.9014 11.7825 24.8835 11.0923C24.8716 10.6365 24.9353 10.1108 25.3794 9.3606C26.0393 9.4978 26.6638 9.39893 27.1719 9.31836C27.9265 9.19873 28.3445 9.15088 28.8623 9.46826C29.4109 9.80444 30.1016 9.83032 30.6841 9.51587C31.0566 9.3147 31.3408 8.98169 31.5054 8.59131L31.6077 8.3479C31.7305 8.05615 31.7988 7.76514 31.8105 7.48267C31.8462 6.61572 31.4133 5.77783 30.6804 5.2959C30.5581 5.21533 30.4241 5.12817 30.2817 5.0354C29.7209 4.67041 29.0229 4.21631 28.429 3.77319C27.8652 3.35254 27.5984 3.09302 27.477 2.95581C27.5352 2.82739 27.6914 2.5791 28.1118 2.17383C28.4363 1.86133 28.5906 1.40234 28.4866 0.964111C28.3501 0.390625 27.842 0 27.2693 0C25.9744 0 25.0474 0.0668945 23.998 0.40625C20.731 0.503662 19.292 2.83472 18.2288 5.35327C17.6406 6.65845 16.481 8.09277 14.9727 8.25H12.6877C11.5337 8.25 10.4421 8.53369 9.45776 9.08228C8.74316 8.5769 7.23047 7.6875 5.43628 7.6875C4.36621 7.6875 2.70361 7.91821 0.859863 9.01733C0.481689 9.24292 0.25 9.65063 0.25 10.0911V12.4673C0.25 12.9751 0.540039 13.449 1.00684 13.6487C1.16699 13.7173 1.33447 13.75 1.49976 13.75C1.88208 13.75 2.25244 13.5742 2.49341 13.2585C2.50098 13.2488 3.27466 12.2581 4.43433 11.5488C5.44189 10.9326 6.38501 10.7302 7.29004 10.9395C5.12988 13.6077 4.05908 18.1055 4.18774 24.0271C4.18774 24.0288 4.18774 24.0432 4.18799 24.0674C4.19043 24.7556 4.74927 25.3125 5.4375 25.3125H5.43774C6.12695 25.3125 6.68603 24.7542 6.68726 24.0649C6.68726 24.0256 6.6875 24.0022 6.6875 24C6.6875 22.2463 7.31811 20.9319 8.61548 19.9812C9.59399 19.2639 10.9216 18.7761 12.5798 18.5212C12.2764 18.8894 12.1104 19.3271 12.1084 19.803C12.1045 20.7603 12.7664 21.5691 13.8787 21.9663L16.2483 22.8123L13.8508 23.6675C12.7412 24.0632 12.0789 24.8696 12.0793 25.8242C12.0798 26.7795 12.7434 27.5854 13.8542 27.9805L16.0395 28.7576L13.1536 29.5H3.96753C3.28955 29.5 2.7124 30.0271 2.68823 30.7043C2.66309 31.4155 3.23193 32 3.9375 32H28.5325C29.2104 32 29.7876 31.4729 29.8118 30.7957C29.8369 30.0845 29.2681 29.5 28.5625 29.5H19.1682C19.2603 29.2651 19.3035 29.0303 19.3057 28.813C19.314 28.0681 18.8523 27.1045 17.531 26.6348L15.2488 25.823L17.645 24.9683C18.7541 24.5728 19.4165 23.7668 19.4165 22.8127C19.4167 21.8586 18.7549 21.0527 17.6462 20.6567L15.2927 19.8164L19.1589 18.5154C21.0115 18.7595 22.3274 19.2258 23.1421 19.9226C24.0742 20.72 24.4375 21.8633 24.4375 24C24.4375 24.0022 24.4375 24.0259 24.4377 24.0649C24.439 24.7542 24.998 25.3125 25.6873 25.3125Z" fill="#9D9EA0"/>
</g>
<defs>
<clipPath id="clip0">
<rect width="32" height="32" fill="white"/>
</clipPath>
</defs>
</svg>
