<svg width="14" height="14" viewBox="0 0 14 14" fill="none" xmlns="http://www.w3.org/2000/svg">
<path d="M5.94212 9.63087L3.19614 2.91275L0 2.91275C0.0900322 3.19463 6.97749 13.953 7.02251 14C7.24759 13.8591 10.3987 8.73826 10.5338 8.45638C10.8039 7.98658 11.074 7.56376 11.3891 7.09396C11.7492 6.5302 13.955 3.10067 14 2.86577L10.7138 2.86577C10.7138 3.05369 10.4887 3.47651 10.4437 3.71141L9.45338 6.24832C9.2283 6.81208 9.04823 7.37584 8.82315 7.9396C8.73312 8.22148 8.59807 8.50336 8.50804 8.78524L8.28296 9.39597C8.19293 9.63087 8.32797 9.48993 8.14791 9.58389C8.23794 9.39597 9.13826 4.13423 9.31833 3.33557C9.45338 2.72483 9.40836 2.91275 8.91318 2.25503C8.64309 1.92617 7.33762 0.0939597 7.02251 0C6.97749 0.14094 5.49196 1.97315 5.22187 2.25503C4.54662 3.00671 4.68167 2.86577 4.90675 3.99329C4.99678 4.51007 5.94212 9.25503 5.94212 9.63087Z" fill="#DBDBDB"/>
</svg>
