<svg width="16" height="16" viewBox="0 0 16 16" fill="none" xmlns="http://www.w3.org/2000/svg">
<path d="M11.0067 9.209L3.32886 12.3473L3.32886 16C3.65101 15.8971 15.9463 8.02572 16 7.97428C15.8389 7.71704 9.98658 4.11576 9.66443 3.96141C9.12752 3.65273 8.6443 3.34405 8.10738 2.98392C7.46309 2.57235 3.54362 0.0514468 3.27517 -1.43162e-07L3.27517 3.75563C3.48993 3.75563 3.97315 4.01286 4.24161 4.06431L7.14094 5.19614C7.78523 5.45338 8.42953 5.65916 9.07382 5.9164C9.39597 6.01929 9.71812 6.17363 10.0403 6.27653L10.7383 6.53376C11.0067 6.63666 10.8456 6.48231 10.953 6.6881C10.7383 6.58521 4.72483 5.55627 3.81208 5.35048C3.11409 5.19614 3.32886 5.24759 2.57718 5.81351C2.20134 6.12219 0.107382 7.61415 -3.50816e-07 7.97428C0.161073 8.02572 2.25503 9.72347 2.57718 10.0322C3.43624 10.8039 3.27517 10.6495 4.56376 10.3923C5.15436 10.2894 10.5772 9.209 11.0067 9.209Z" fill="#BA8A46"/>
</svg>
