<svg width="32" height="32" viewBox="0 0 32 32" fill="none" xmlns="http://www.w3.org/2000/svg">
<g clip-path="url(#clip0)">
<path d="M29.6233 16.6104C29.3397 14.0702 26.1767 11.943 21.3489 11.0305C21.5031 10.6605 21.6819 10.2968 21.8915 9.96382C22.6499 8.73068 22.9829 7.25707 22.8225 5.80813C22.6561 4.30987 21.9963 2.94725 20.9173 1.88058C20.0048 0.980387 18.8827 0.376148 17.668 0.12952C16.5335 -0.104777 15.3374 -0.0184571 14.2214 0.363816C11.8476 1.18385 10.1705 3.2247 9.84992 5.69715C9.84376 5.74031 9.84376 5.78963 9.84376 5.83279C9.8191 5.92528 9.81293 6.02393 9.82526 6.11642C9.86842 7.67017 10.4295 8.9773 10.9289 10.1303C11.0646 10.4386 11.1879 10.7407 11.305 11.0305C9.09154 11.4497 7.16785 12.1403 5.73124 13.0343C3.85687 14.1997 2.88885 15.6856 3.01833 17.2085C3.16014 18.9534 4.72006 20.5812 7.29733 21.691V23.738C7.29733 28.2945 11.0029 32 15.5594 32H17.1008C21.6572 32 25.3628 28.2945 25.3628 23.738V21.691C28.2915 20.4085 29.8453 18.565 29.6233 16.6104ZM19.4129 14.7114C19.4191 14.9087 19.4191 15.0629 19.4129 15.1492V15.1677C19.4129 16.3083 18.4819 17.2393 17.3412 17.2393H15.3127C14.1721 17.2393 13.2411 16.3083 13.2411 15.1677V14.064C13.2411 14.0332 13.2411 13.99 13.2411 13.9715C13.2411 13.9592 13.2411 13.9345 13.2411 13.9284C13.2164 12.2451 12.7601 10.6297 11.9216 9.25476C11.2557 7.5222 11.231 6.90563 11.2064 6.41237C11.2002 6.26439 11.194 6.12258 11.1694 5.96227C11.1755 5.93145 11.1879 5.90062 11.1879 5.86362C11.4407 3.90293 12.7725 2.28752 14.653 1.64012C16.552 0.986552 18.5312 1.43665 19.9617 2.84243C21.6881 4.55033 22.0087 7.17692 20.7385 9.24243C19.3451 11.5052 19.3883 13.6694 19.4129 14.7114ZM15.3127 18.602H17.3412C19.2279 18.602 20.7694 17.0667 20.7694 15.18C20.7755 14.921 20.7755 14.6744 20.7694 14.4401C20.7632 13.8112 20.757 13.2131 20.9482 12.3438C25.2827 13.1392 28.2854 15.0259 28.2854 16.9619C28.2854 18.2259 27.0152 19.496 24.8017 20.4517C22.4958 21.4444 19.4869 21.9869 16.3239 21.9869C13.1609 21.9869 10.152 21.4382 7.84607 20.4517C5.63259 19.5022 4.36245 18.2259 4.36245 16.9619C4.36245 15.0197 7.37132 13.1392 11.6996 12.3438C11.8908 13.2193 11.8908 13.879 11.8846 14.7607C11.8846 14.8964 11.8846 15.032 11.8846 15.1738C11.8846 17.0605 13.4199 18.602 15.3127 18.602ZM21.2256 23.738C21.2256 25.8528 19.1108 27.8197 16.7863 27.869C16.7802 27.869 16.7802 27.869 16.774 27.869C16.7678 27.869 16.7678 27.869 16.7617 27.869C15.5347 27.8444 11.5147 27.4806 11.4222 23.738V22.8933C14.5913 23.479 18.1305 23.4852 21.2256 22.918V23.738ZM8.64761 22.2027C9.10388 22.3507 9.5848 22.4925 10.0781 22.6158C10.0781 22.7145 10.0781 22.844 10.0719 22.9796C10.0411 23.997 9.98557 25.896 11.6441 27.5792C12.6553 28.6089 15.2511 29.1946 16.737 29.2193C16.7493 29.2193 16.7617 29.2193 16.774 29.2193C16.7863 29.2193 16.7987 29.2193 16.811 29.2193C18.2476 29.1946 19.7027 28.5966 20.794 27.5916C21.9409 26.5372 22.5759 25.1684 22.5759 23.7318V22.6158C23.063 22.4925 23.5378 22.3569 23.994 22.2027V23.738C23.994 27.5484 20.8989 30.6436 17.0885 30.6436H15.547C11.7366 30.6436 8.64145 27.5484 8.64145 23.738V22.2027H8.64761Z" fill="#606060"/>
</g>
<defs>
<clipPath id="clip0">
<rect width="31.2889" height="32" fill="white"/>
</clipPath>
</defs>
</svg>
