<svg width="39" height="40" viewBox="0 0 39 40" fill="none" xmlns="http://www.w3.org/2000/svg">
<path d="M39 3.55762H0V11.1064H39V3.55762Z" fill="#C4C4C4"/>
<path d="M11.8287 2.68995C12.5388 2.68995 13.1144 2.10724 13.1144 1.38843C13.1144 0.669624 12.5388 0.0869141 11.8287 0.0869141C11.1186 0.0869141 10.543 0.669624 10.543 1.38843C10.543 2.10724 11.1186 2.68995 11.8287 2.68995Z" fill="#C4C4C4"/>
<path d="M21.8572 2.60304C22.5673 2.60304 23.143 2.02033 23.143 1.30152C23.143 0.58271 22.5673 0 21.8572 0C21.1472 0 20.5715 0.58271 20.5715 1.30152C20.5715 2.02033 21.1472 2.60304 21.8572 2.60304Z" fill="#C4C4C4"/>
<path d="M16.8858 2.68995C17.5959 2.68995 18.1715 2.10724 18.1715 1.38843C18.1715 0.669624 17.5959 0.0869141 16.8858 0.0869141C16.1757 0.0869141 15.6001 0.669624 15.6001 1.38843C15.6001 2.10724 16.1757 2.68995 16.8858 2.68995Z" fill="#C4C4C4"/>
<path d="M26.9144 2.60304C27.6245 2.60304 28.2001 2.02033 28.2001 1.30152C28.2001 0.58271 27.6245 0 26.9144 0C26.2043 0 25.6287 0.58271 25.6287 1.30152C25.6287 2.02033 26.2043 2.60304 26.9144 2.60304Z" fill="#C4C4C4"/>
<path d="M1.28571 30.3687C1.99579 30.3687 2.57143 29.786 2.57143 29.0671C2.57143 28.3483 1.99579 27.7656 1.28571 27.7656C0.575634 27.7656 0 28.3483 0 29.0671C0 29.786 0.575634 30.3687 1.28571 30.3687Z" fill="#C4C4C4"/>
<path d="M5.22859 30.3687C5.93867 30.3687 6.5143 29.786 6.5143 29.0671C6.5143 28.3483 5.93867 27.7656 5.22859 27.7656C4.51851 27.7656 3.94287 28.3483 3.94287 29.0671C3.94287 29.786 4.51851 30.3687 5.22859 30.3687Z" fill="#C4C4C4"/>
<path d="M1.28571 40C1.99579 40 2.57143 39.4173 2.57143 38.6985C2.57143 37.9797 1.99579 37.397 1.28571 37.397C0.575634 37.397 0 37.9797 0 38.6985C0 39.4173 0.575634 40 1.28571 40Z" fill="#C4C4C4"/>
<path d="M5.22859 40C5.93867 40 6.5143 39.4173 6.5143 38.6985C6.5143 37.9797 5.93867 37.397 5.22859 37.397C4.51851 37.397 3.94287 37.9797 3.94287 38.6985C3.94287 39.4173 4.51851 40 5.22859 40Z" fill="#C4C4C4"/>
<path d="M1.28571 34.8809C1.99579 34.8809 2.57143 34.2982 2.57143 33.5793C2.57143 32.8605 1.99579 32.2778 1.28571 32.2778C0.575634 32.2778 0 32.8605 0 33.5793C0 34.2982 0.575634 34.8809 1.28571 34.8809Z" fill="#C4C4C4"/>
<path d="M5.22859 34.8809C5.93867 34.8809 6.5143 34.2982 6.5143 33.5793C6.5143 32.8605 5.93867 32.2778 5.22859 32.2778C4.51851 32.2778 3.94287 32.8605 3.94287 33.5793C3.94287 34.2982 4.51851 34.8809 5.22859 34.8809Z" fill="#C4C4C4"/>
<path d="M1.28571 25.6831C1.99579 25.6831 2.57143 25.1004 2.57143 24.3816C2.57143 23.6628 1.99579 23.0801 1.28571 23.0801C0.575634 23.0801 0 23.6628 0 24.3816C0 25.1004 0.575634 25.6831 1.28571 25.6831Z" fill="#C4C4C4"/>
<path d="M5.22859 25.6831C5.93867 25.6831 6.5143 25.1004 6.5143 24.3816C6.5143 23.6628 5.93867 23.0801 5.22859 23.0801C4.51851 23.0801 3.94287 23.6628 3.94287 24.3816C3.94287 25.1004 4.51851 25.6831 5.22859 25.6831Z" fill="#C4C4C4"/>
<path d="M1.28571 20.564C1.99579 20.564 2.57143 19.9813 2.57143 19.2625C2.57143 18.5436 1.99579 17.9609 1.28571 17.9609C0.575634 17.9609 0 18.5436 0 19.2625C0 19.9813 0.575634 20.564 1.28571 20.564Z" fill="#C4C4C4"/>
<path d="M5.22859 20.564C5.93867 20.564 6.5143 19.9813 6.5143 19.2625C6.5143 18.5436 5.93867 17.9609 5.22859 17.9609C4.51851 17.9609 3.94287 18.5436 3.94287 19.2625C3.94287 19.9813 4.51851 20.564 5.22859 20.564Z" fill="#C4C4C4"/>
<path d="M9.17146 30.3687C9.88154 30.3687 10.4572 29.786 10.4572 29.0671C10.4572 28.3483 9.88154 27.7656 9.17146 27.7656C8.46138 27.7656 7.88574 28.3483 7.88574 29.0671C7.88574 29.786 8.46138 30.3687 9.17146 30.3687Z" fill="#C4C4C4"/>
<path d="M13.1143 30.3687C13.8244 30.3687 14.4 29.786 14.4 29.0671C14.4 28.3483 13.8244 27.7656 13.1143 27.7656C12.4042 27.7656 11.8286 28.3483 11.8286 29.0671C11.8286 29.786 12.4042 30.3687 13.1143 30.3687Z" fill="#C4C4C4"/>
<path d="M9.17146 40C9.88154 40 10.4572 39.4173 10.4572 38.6985C10.4572 37.9797 9.88154 37.397 9.17146 37.397C8.46138 37.397 7.88574 37.9797 7.88574 38.6985C7.88574 39.4173 8.46138 40 9.17146 40Z" fill="#C4C4C4"/>
<path d="M13.1143 40C13.8244 40 14.4 39.4173 14.4 38.6985C14.4 37.9797 13.8244 37.397 13.1143 37.397C12.4042 37.397 11.8286 37.9797 11.8286 38.6985C11.8286 39.4173 12.4042 40 13.1143 40Z" fill="#C4C4C4"/>
<path d="M9.17146 34.8809C9.88154 34.8809 10.4572 34.2982 10.4572 33.5793C10.4572 32.8605 9.88154 32.2778 9.17146 32.2778C8.46138 32.2778 7.88574 32.8605 7.88574 33.5793C7.88574 34.2982 8.46138 34.8809 9.17146 34.8809Z" fill="#C4C4C4"/>
<path d="M13.1143 34.8809C13.8244 34.8809 14.4 34.2982 14.4 33.5793C14.4 32.8605 13.8244 32.2778 13.1143 32.2778C12.4042 32.2778 11.8286 32.8605 11.8286 33.5793C11.8286 34.2982 12.4042 34.8809 13.1143 34.8809Z" fill="#C4C4C4"/>
<path d="M9.17146 25.6831C9.88154 25.6831 10.4572 25.1004 10.4572 24.3816C10.4572 23.6628 9.88154 23.0801 9.17146 23.0801C8.46138 23.0801 7.88574 23.6628 7.88574 24.3816C7.88574 25.1004 8.46138 25.6831 9.17146 25.6831Z" fill="#C4C4C4"/>
<path d="M13.1143 25.6831C13.8244 25.6831 14.4 25.1004 14.4 24.3816C14.4 23.6628 13.8244 23.0801 13.1143 23.0801C12.4042 23.0801 11.8286 23.6628 11.8286 24.3816C11.8286 25.1004 12.4042 25.6831 13.1143 25.6831Z" fill="#C4C4C4"/>
<path d="M9.17146 20.564C9.88154 20.564 10.4572 19.9813 10.4572 19.2625C10.4572 18.5436 9.88154 17.9609 9.17146 17.9609C8.46138 17.9609 7.88574 18.5436 7.88574 19.2625C7.88574 19.9813 8.46138 20.564 9.17146 20.564Z" fill="#C4C4C4"/>
<path d="M13.1143 20.564C13.8244 20.564 14.4 19.9813 14.4 19.2625C14.4 18.5436 13.8244 17.9609 13.1143 17.9609C12.4042 17.9609 11.8286 18.5436 11.8286 19.2625C11.8286 19.9813 12.4042 20.564 13.1143 20.564Z" fill="#C4C4C4"/>
<path d="M25.8001 30.3687C26.5102 30.3687 27.0858 29.786 27.0858 29.0671C27.0858 28.3483 26.5102 27.7656 25.8001 27.7656C25.09 27.7656 24.5144 28.3483 24.5144 29.0671C24.5144 29.786 25.09 30.3687 25.8001 30.3687Z" fill="#C4C4C4"/>
<path d="M29.7429 30.3687C30.4529 30.3687 31.0286 29.786 31.0286 29.0671C31.0286 28.3483 30.4529 27.7656 29.7429 27.7656C29.0328 27.7656 28.4572 28.3483 28.4572 29.0671C28.4572 29.786 29.0328 30.3687 29.7429 30.3687Z" fill="#C4C4C4"/>
<path d="M25.8001 40C26.5102 40 27.0858 39.4173 27.0858 38.6985C27.0858 37.9797 26.5102 37.397 25.8001 37.397C25.09 37.397 24.5144 37.9797 24.5144 38.6985C24.5144 39.4173 25.09 40 25.8001 40Z" fill="#C4C4C4"/>
<path d="M29.7429 40C30.4529 40 31.0286 39.4173 31.0286 38.6985C31.0286 37.9797 30.4529 37.397 29.7429 37.397C29.0328 37.397 28.4572 37.9797 28.4572 38.6985C28.4572 39.4173 29.0328 40 29.7429 40Z" fill="#C4C4C4"/>
<path d="M25.8001 34.8809C26.5102 34.8809 27.0858 34.2982 27.0858 33.5793C27.0858 32.8605 26.5102 32.2778 25.8001 32.2778C25.09 32.2778 24.5144 32.8605 24.5144 33.5793C24.5144 34.2982 25.09 34.8809 25.8001 34.8809Z" fill="#C4C4C4"/>
<path d="M29.7429 34.8809C30.4529 34.8809 31.0286 34.2982 31.0286 33.5793C31.0286 32.8605 30.4529 32.2778 29.7429 32.2778C29.0328 32.2778 28.4572 32.8605 28.4572 33.5793C28.4572 34.2982 29.0328 34.8809 29.7429 34.8809Z" fill="#C4C4C4"/>
<path d="M25.8001 25.6831C26.5102 25.6831 27.0858 25.1004 27.0858 24.3816C27.0858 23.6628 26.5102 23.0801 25.8001 23.0801C25.09 23.0801 24.5144 23.6628 24.5144 24.3816C24.5144 25.1004 25.09 25.6831 25.8001 25.6831Z" fill="#C4C4C4"/>
<path d="M29.7429 25.6831C30.4529 25.6831 31.0286 25.1004 31.0286 24.3816C31.0286 23.6628 30.4529 23.0801 29.7429 23.0801C29.0328 23.0801 28.4572 23.6628 28.4572 24.3816C28.4572 25.1004 29.0328 25.6831 29.7429 25.6831Z" fill="#C4C4C4"/>
<path d="M25.8001 20.564C26.5102 20.564 27.0858 19.9813 27.0858 19.2625C27.0858 18.5436 26.5102 17.9609 25.8001 17.9609C25.09 17.9609 24.5144 18.5436 24.5144 19.2625C24.5144 19.9813 25.09 20.564 25.8001 20.564Z" fill="#C4C4C4"/>
<path d="M29.7429 20.564C30.4529 20.564 31.0286 19.9813 31.0286 19.2625C31.0286 18.5436 30.4529 17.9609 29.7429 17.9609C29.0328 17.9609 28.4572 18.5436 28.4572 19.2625C28.4572 19.9813 29.0328 20.564 29.7429 20.564Z" fill="#C4C4C4"/>
<path d="M33.6857 30.3687C34.3958 30.3687 34.9714 29.786 34.9714 29.0671C34.9714 28.3483 34.3958 27.7656 33.6857 27.7656C32.9757 27.7656 32.4 28.3483 32.4 29.0671C32.4 29.786 32.9757 30.3687 33.6857 30.3687Z" fill="#C4C4C4"/>
<path d="M37.6286 30.3687C38.3387 30.3687 38.9143 29.786 38.9143 29.0671C38.9143 28.3483 38.3387 27.7656 37.6286 27.7656C36.9185 27.7656 36.3429 28.3483 36.3429 29.0671C36.3429 29.786 36.9185 30.3687 37.6286 30.3687Z" fill="#C4C4C4"/>
<path d="M33.6857 40C34.3958 40 34.9714 39.4173 34.9714 38.6985C34.9714 37.9797 34.3958 37.397 33.6857 37.397C32.9757 37.397 32.4 37.9797 32.4 38.6985C32.4 39.4173 32.9757 40 33.6857 40Z" fill="#C4C4C4"/>
<path d="M37.6286 40C38.3387 40 38.9143 39.4173 38.9143 38.6985C38.9143 37.9797 38.3387 37.397 37.6286 37.397C36.9185 37.397 36.3429 37.9797 36.3429 38.6985C36.3429 39.4173 36.9185 40 37.6286 40Z" fill="#C4C4C4"/>
<path d="M33.6857 34.8809C34.3958 34.8809 34.9714 34.2982 34.9714 33.5793C34.9714 32.8605 34.3958 32.2778 33.6857 32.2778C32.9757 32.2778 32.4 32.8605 32.4 33.5793C32.4 34.2982 32.9757 34.8809 33.6857 34.8809Z" fill="#C4C4C4"/>
<path d="M37.6286 34.8809C38.3387 34.8809 38.9143 34.2982 38.9143 33.5793C38.9143 32.8605 38.3387 32.2778 37.6286 32.2778C36.9185 32.2778 36.3429 32.8605 36.3429 33.5793C36.3429 34.2982 36.9185 34.8809 37.6286 34.8809Z" fill="#C4C4C4"/>
<path d="M33.6857 25.6831C34.3958 25.6831 34.9714 25.1004 34.9714 24.3816C34.9714 23.6628 34.3958 23.0801 33.6857 23.0801C32.9757 23.0801 32.4 23.6628 32.4 24.3816C32.4 25.1004 32.9757 25.6831 33.6857 25.6831Z" fill="#C4C4C4"/>
<path d="M37.6286 25.6831C38.3387 25.6831 38.9143 25.1004 38.9143 24.3816C38.9143 23.6628 38.3387 23.0801 37.6286 23.0801C36.9185 23.0801 36.3429 23.6628 36.3429 24.3816C36.3429 25.1004 36.9185 25.6831 37.6286 25.6831Z" fill="#C4C4C4"/>
<path d="M33.6857 20.564C34.3958 20.564 34.9714 19.9813 34.9714 19.2625C34.9714 18.5436 34.3958 17.9609 33.6857 17.9609C32.9757 17.9609 32.4 18.5436 32.4 19.2625C32.4 19.9813 32.9757 20.564 33.6857 20.564Z" fill="#C4C4C4"/>
<path d="M37.6286 20.564C38.3387 20.564 38.9143 19.9813 38.9143 19.2625C38.9143 18.5436 38.3387 17.9609 37.6286 17.9609C36.9185 17.9609 36.3429 18.5436 36.3429 19.2625C36.3429 19.9813 36.9185 20.564 37.6286 20.564Z" fill="#C4C4C4"/>
</svg>
