<svg width="32" height="32" viewBox="0 0 32 32" fill="none" xmlns="http://www.w3.org/2000/svg">
<g clip-path="url(#clip0)">
<path d="M13.6875 27C14.3779 27 14.9375 26.4404 14.9375 25.75C14.9375 25.0596 14.3779 24.5 13.6875 24.5C12.9971 24.5 12.4375 25.0596 12.4375 25.75C12.4375 26.4404 12.9971 27 13.6875 27Z" fill="#9D9EA0"/>
<path d="M13.6875 22.625C14.3779 22.625 14.9375 22.0654 14.9375 21.375C14.9375 20.6846 14.3779 20.125 13.6875 20.125C12.9971 20.125 12.4375 20.6846 12.4375 21.375C12.4375 22.0654 12.9971 22.625 13.6875 22.625Z" fill="#9D9EA0"/>
<path d="M23.3125 25.125C22.6221 25.125 22.0625 25.6846 22.0625 26.375C22.0625 27.0654 22.6221 27.625 23.3125 27.625H25.8125C26.5029 27.625 27.0625 27.0654 27.0625 26.375C27.0625 25.6846 26.5029 25.125 25.8125 25.125H23.3125Z" fill="#9D9EA0"/>
<path d="M31.9198 27.4202C31.7792 26.7444 31.1172 26.3107 30.4413 26.4513C29.7654 26.5919 29.3315 27.2539 29.4723 27.9298C29.5533 28.3191 29.4568 28.7181 29.2075 29.0247C29.0632 29.2022 28.7412 29.5001 28.2076 29.5001H19.8743L19.8759 19.0627C19.876 18.6978 19.7166 18.3511 19.4397 18.1136L18.369 17.1955C22.0375 17.8343 25.3218 19.9398 27.439 23.0974C27.8235 23.6708 28.6 23.8239 29.1733 23.4394C29.7468 23.055 29.8999 22.2785 29.5155 21.7051C27.4644 18.646 24.4858 16.4219 21.0897 15.3043C23.1593 13.7526 24.5009 11.28 24.5009 8.5C24.5009 7.7555 24.4043 7.01619 24.2138 6.30256C24.1918 6.22056 24.1622 6.14275 24.1259 6.06944V3.75C24.1259 1.68225 22.4437 0 20.3759 0H11.6259C9.55815 0 7.8759 1.68225 7.8759 3.75V6.02187C7.85802 6.06525 7.84184 6.10969 7.82859 6.15581C7.61109 6.915 7.5009 7.70369 7.5009 8.5C7.5009 11.2818 8.84415 13.7557 10.9162 15.3074C9.01796 15.9323 7.23665 16.904 5.67784 18.1863C2.81959 20.5373 0.832273 23.8166 0.0820852 27.4202C-0.15304 28.5493 0.128585 29.7091 0.854773 30.6019C1.57721 31.4904 2.64865 32 3.79415 32H28.2075C29.353 32 30.4245 31.4904 31.147 30.6019C31.8733 29.7091 32.1549 28.5493 31.9198 27.4202ZM10.3758 3.75C10.3758 3.06075 10.9366 2.5 11.6258 2.5H20.3758C21.0651 2.5 21.6258 3.06075 21.6258 3.75V5H10.3758V3.75ZM10.0008 8.5C10.0008 8.16325 10.0292 7.82894 10.0843 7.5H21.9177C21.9727 7.829 22.0008 8.16356 22.0008 8.5C22.0008 11.7086 19.4693 14.3368 16.2987 14.4926C16.1995 14.4907 16.1003 14.4896 16.0008 14.4896C15.9033 14.4896 15.8058 14.491 15.7084 14.4928C12.5353 14.3398 10.0008 11.7104 10.0008 8.5ZM17.3743 29.5H3.79415C3.26052 29.5 2.93859 29.2021 2.79421 29.0246C2.5449 28.7181 2.4484 28.319 2.52946 27.9298C3.73927 22.1188 8.60102 17.7691 14.3989 17.0845L17.3758 19.6372L17.3743 29.5Z" fill="#9D9EA0"/>
</g>
<defs>
<clipPath id="clip0">
<rect width="32" height="32" fill="white"/>
</clipPath>
</defs>
</svg>
