<svg width="18" height="18" viewBox="0 0 18 18" fill="none" xmlns="http://www.w3.org/2000/svg">
<g clip-path="url(#clip0)">
<path d="M8.99975 6.29297C8.68119 6.29297 8.46875 6.50534 8.46875 6.82397V10.6469C8.46875 10.9655 8.68112 11.1779 8.99975 11.1779C9.31831 11.1779 9.53074 10.9656 9.53074 10.6469V6.82397C9.53074 6.50534 9.31831 6.29297 8.99975 6.29297Z" fill="#B68133"/>
<path d="M9.3183 12.9825C9.10593 12.7701 8.78731 12.7701 8.57494 12.9825C8.46875 13.0887 8.46875 13.3011 8.46875 13.4073C8.46875 13.6196 8.46875 13.7258 8.57494 13.832C8.68112 13.9382 8.89349 13.9382 8.99968 13.9382C9.10587 13.9382 9.31824 13.9382 9.21205 13.832C9.31824 13.7258 9.42443 13.5135 9.42443 13.4073C9.42455 13.1949 9.42455 13.0887 9.3183 12.9825Z" fill="#B68133"/>
<path d="M17.6018 13.089L11.3363 2.151C10.9116 1.30144 9.95582 0.770508 9.00002 0.770508C8.04427 0.770508 7.19471 1.3015 6.66372 2.151L0.398248 13.089C-0.132749 13.9386 -0.132749 15.0005 0.398248 15.8501C0.822996 16.6996 1.77874 17.2306 2.73455 17.2306H15.2655C16.3274 17.2306 17.177 16.6996 17.6018 15.8501C18.1328 15.0005 18.1328 13.9386 17.6018 13.089ZM16.7522 15.4253C16.5399 15.9563 16.0089 16.2749 15.3717 16.2749H2.73455C2.20355 16.2749 1.67262 15.9563 1.35405 15.4253C1.03549 14.8943 1.03549 14.2572 1.35405 13.7262L7.61952 2.78813C7.8319 2.25713 8.36289 1.93857 9.00002 1.93857C9.6372 1.93857 10.1681 2.25713 10.4868 2.78813L16.7522 13.7261C17.0709 14.2571 17.0709 14.8943 16.7522 15.4253Z" fill="#B68133"/>
</g>
<defs>
<clipPath id="clip0">
<rect width="18" height="18" fill="white"/>
</clipPath>
</defs>
</svg>
