<svg width="32" height="32" viewBox="0 0 32 32" fill="none" xmlns="http://www.w3.org/2000/svg">
<g clip-path="url(#clip0)">
<path d="M15.6 22.5C16.2732 22.5 16.8188 23.0596 16.8188 23.75C16.8188 24.4404 16.2732 25 15.6 25C14.9268 25 14.3813 24.4404 14.3813 23.75C14.3813 23.0596 14.9268 22.5 15.6 22.5ZM7.18301 14.144C9.39152 11.7136 12.3808 10.375 15.6 10.375C18.8192 10.375 21.8085 11.7134 24.0172 14.144C24.4762 14.6492 25.2474 14.677 25.7397 14.2063C26.2322 13.7356 26.2593 12.9446 25.8004 12.4397C23.1255 9.49609 19.5029 7.875 15.6 7.875C11.6971 7.875 8.07469 9.49609 5.39987 12.4397C4.94094 12.9446 4.96807 13.7356 5.46057 14.2063C5.69551 14.4309 5.99377 14.542 6.29132 14.542C6.61743 14.542 6.94307 14.4082 7.18301 14.144ZM10.0049 17.5239C11.5436 15.9365 13.5231 15.0625 15.5788 15.0625C17.6343 15.0625 19.6138 15.9365 21.1529 17.5239C21.6276 18.0134 22.3991 18.0156 22.8763 17.5288C23.3536 17.042 23.3557 16.2505 22.8811 15.761C20.8811 13.6985 18.2877 12.5625 15.5788 12.5625C12.8692 12.5625 10.2761 13.6985 8.27631 15.7612C7.8019 16.2507 7.80405 17.0422 8.28131 17.5288C8.51911 17.7715 8.82975 17.8923 9.14062 17.8923C9.45364 17.8923 9.76666 17.7695 10.0049 17.5239ZM19.7473 20.9019C20.2232 20.4133 20.2227 19.6218 19.7464 19.134C18.6497 18.0103 17.0613 17.3125 15.6007 17.3125C15.6005 17.3125 15.6002 17.3125 15.6 17.3125H15.5431C15.5429 17.3125 15.5426 17.3125 15.5424 17.3125C14.072 17.3125 12.4772 18.0105 11.3806 19.134C10.9045 19.6218 10.904 20.4133 11.3796 20.9019C11.8554 21.3901 12.6269 21.3906 13.1032 20.9026C13.7497 20.2405 14.7069 19.8125 15.5426 19.8125H15.5429H15.6002H15.6005C16.4262 19.8125 17.3774 20.2405 18.0237 20.9026C18.2617 21.1465 18.5736 21.2683 18.8852 21.2683C19.1972 21.2683 19.5093 21.146 19.7473 20.9019ZM31.2 27C31.2 26.3096 30.6544 25.75 29.9813 25.75C29.3081 25.75 28.7625 26.3096 28.7625 27C28.7625 28.3784 27.669 29.5 26.325 29.5H4.875C3.53104 29.5 2.4375 28.3784 2.4375 27V5C2.4375 3.62158 3.53104 2.5 4.875 2.5H26.325C27.669 2.5 28.7625 3.62158 28.7625 5V20.75C28.7625 21.4404 29.3081 22 29.9813 22C30.6544 22 31.2 21.4404 31.2 20.75V5C31.2 2.24292 29.0132 0 26.325 0H4.875C2.18685 0 0 2.24292 0 5V27C0 29.7571 2.18685 32 4.875 32H26.325C29.0132 32 31.2 29.7571 31.2 27Z" fill="#9D9EA0"/>
</g>
<defs>
<clipPath id="clip0">
<rect width="31.2" height="32" fill="white"/>
</clipPath>
</defs>
</svg>
